<?xml version="1.0" encoding="utf-8"?>
<!-- Generator: Adobe Illustrator 16.0.0, SVG Export Plug-In . SVG Version: 6.00 Build 0)  -->
<!DOCTYPE svg PUBLIC "-//W3C//DTD SVG 1.1//EN" "http://www.w3.org/Graphics/SVG/1.1/DTD/svg11.dtd" [
	<!ENTITY ns_extend "http://ns.adobe.com/Extensibility/1.0/">
	<!ENTITY ns_ai "http://ns.adobe.com/AdobeIllustrator/10.0/">
	<!ENTITY ns_graphs "http://ns.adobe.com/Graphs/1.0/">
	<!ENTITY ns_vars "http://ns.adobe.com/Variables/1.0/">
	<!ENTITY ns_imrep "http://ns.adobe.com/ImageReplacement/1.0/">
	<!ENTITY ns_sfw "http://ns.adobe.com/SaveForWeb/1.0/">
	<!ENTITY ns_custom "http://ns.adobe.com/GenericCustomNamespace/1.0/">
	<!ENTITY ns_adobe_xpath "http://ns.adobe.com/XPath/1.0/">
]>
<svg version="1.1" id="Layer_1" xmlns:x="&ns_extend;" xmlns:i="&ns_ai;" xmlns:graph="&ns_graphs;"
	 xmlns="http://www.w3.org/2000/svg" xmlns:xlink="http://www.w3.org/1999/xlink" x="0px" y="0px" width="1920px" height="110px"
	 viewBox="0 0 1920 110" enable-background="new 0 0 1920 110" xml:space="preserve">
<metadata>
	<sfw  xmlns="&ns_sfw;">
		<slices></slices>
		<sliceSourceBounds  width="1920" height="110" y="-110" x="0" bottomLeftOrigin="true"></sliceSourceBounds>
	</sfw>
</metadata>
<path d="M0,110c0-5.42,0-10.84,0-16.26c0-12.08,0-24.16,0-36.241c0-12.472,0-24.944,0-37.417c0-6.595,0-13.19,0-19.786
	C0,0.198,0,0.099,0,0c0.717,0.082,1.435,0.165,2.152,0.247C4.251,0.487,6.35,0.728,8.449,0.968
	c3.399,0.389,6.799,0.779,10.198,1.168c4.619,0.529,9.238,1.059,13.857,1.588c5.758,0.66,11.517,1.319,17.275,1.979
	c6.817,0.781,13.634,1.562,20.451,2.343c7.795,0.893,15.589,1.786,23.384,2.679c8.692,0.996,17.384,1.992,26.076,2.988
	c9.509,1.09,19.017,2.179,28.525,3.269c10.244,1.174,20.488,2.348,30.733,3.521c10.899,1.249,21.798,2.498,32.698,3.747
	c11.474,1.315,22.948,2.629,34.421,3.944c11.968,1.371,23.935,2.743,35.903,4.114c12.38,1.418,24.761,2.837,37.142,4.256
	c12.713,1.457,25.426,2.914,38.139,4.37c12.965,1.485,25.93,2.971,38.895,4.457c13.136,1.505,26.271,3.01,39.407,4.516
	c13.226,1.516,26.453,3.031,39.679,4.546c13.236,1.517,26.472,3.034,39.708,4.55c13.165,1.508,26.33,3.017,39.495,4.525
	c13.013,1.49,26.026,2.981,39.04,4.473c12.781,1.465,25.562,2.929,38.342,4.394c12.468,1.429,24.936,2.857,37.403,4.286
	c12.074,1.383,24.148,2.767,36.222,4.15c11.6,1.329,23.199,2.658,34.799,3.987c11.045,1.266,22.089,2.531,33.134,3.797
	c10.409,1.192,20.817,2.385,31.227,3.577c9.692,1.111,19.385,2.222,29.077,3.332c8.895,1.02,17.791,2.039,26.686,3.058
	c8.018,0.919,16.035,1.838,24.052,2.756c7.059,0.81,14.118,1.618,21.177,2.427c6.02,0.69,12.04,1.38,18.06,2.069
	c4.9,0.562,9.8,1.123,14.7,1.685c3.699,0.424,7.399,0.848,11.098,1.271c2.418,0.277,4.837,0.555,7.255,0.831
	c1.057,0.121,2.113,0.242,3.169,0.363c0.042,0.005,0.084,0.01,0.126,0.015c-0.727,0-1.454,0-2.181,0c-2.126,0-4.252,0-6.378,0
	c-3.443,0-6.886,0-10.329,0c-4.678,0-9.355,0-14.033,0c-5.83,0-11.66,0-17.49,0c-6.9,0-13.8,0-20.7,0c-7.887,0-15.775,0-23.662,0
	c-8.793,0-17.586,0-26.379,0c-9.616,0-19.232,0-28.848,0c-10.356,0-20.713,0-31.07,0c-11.015,0-22.03,0-33.045,0
	c-11.591,0-23.183,0-34.773,0c-12.085,0-24.17,0-36.255,0c-12.497,0-24.993,0-37.49,0c-12.826,0-25.651,0-38.478,0
	c-13.072,0-26.145,0-39.218,0c-13.237,0-26.475,0-39.712,0c-13.32,0-26.639,0-39.959,0s-26.639,0-39.959,0
	c-13.237,0-26.475,0-39.712,0c-13.073,0-26.146,0-39.218,0c-12.826,0-25.652,0-38.478,0c-12.497,0-24.993,0-37.49,0
	c-12.085,0-24.17,0-36.255,0c-11.591,0-23.182,0-34.773,0c-11.015,0-22.03,0-33.045,0c-10.356,0-20.713,0-31.07,0
	c-9.616,0-19.232,0-28.848,0c-8.793,0-17.586,0-26.379,0c-7.887,0-15.775,0-23.662,0c-6.9,0-13.8,0-20.7,0c-5.83,0-11.66,0-17.49,0
	c-4.678,0-9.355,0-14.033,0c-3.443,0-6.886,0-10.329,0c-2.126,0-4.252,0-6.378,0C1.454,110,0.727,110,0,110z"/>
<path d="M1920,110c0-5.42,0-10.84,0-16.26c0-12.08,0-24.16,0-36.241c0-12.472,0-24.944,0-37.417c0-6.595,0-13.19,0-19.786
	c0-0.099,0-0.198,0-0.297c-0.718,0.082-1.436,0.165-2.152,0.247c-2.099,0.241-4.197,0.481-6.297,0.722
	c-3.398,0.389-6.798,0.779-10.197,1.168c-4.619,0.529-9.238,1.059-13.857,1.588c-5.759,0.66-11.518,1.319-17.275,1.979
	c-6.817,0.781-13.635,1.562-20.451,2.343c-7.795,0.893-15.59,1.786-23.385,2.679c-8.691,0.996-17.384,1.992-26.075,2.988
	c-9.509,1.09-19.017,2.179-28.525,3.269c-10.244,1.174-20.488,2.348-30.732,3.521c-10.899,1.249-21.799,2.498-32.698,3.747
	c-11.474,1.315-22.947,2.629-34.422,3.944c-11.967,1.371-23.935,2.743-35.902,4.114c-12.381,1.418-24.762,2.837-37.142,4.256
	c-12.713,1.457-25.427,2.914-38.14,4.37c-12.965,1.485-25.93,2.971-38.895,4.457c-13.135,1.505-26.271,3.01-39.407,4.516
	c-13.226,1.516-26.452,3.031-39.678,4.546c-13.236,1.517-26.472,3.034-39.708,4.55c-13.165,1.508-26.33,3.017-39.494,4.525
	c-13.014,1.49-26.026,2.981-39.04,4.473c-12.78,1.465-25.562,2.929-38.343,4.394c-12.467,1.429-24.936,2.857-37.402,4.286
	c-12.074,1.383-24.148,2.767-36.223,4.15c-11.6,1.329-23.199,2.658-34.799,3.987c-11.045,1.266-22.089,2.531-33.134,3.797
	c-10.409,1.192-20.817,2.385-31.227,3.577c-9.692,1.111-19.385,2.222-29.077,3.332c-8.896,1.02-17.79,2.039-26.686,3.058
	c-8.018,0.919-16.035,1.838-24.053,2.756c-7.059,0.81-14.117,1.618-21.177,2.427c-6.02,0.69-12.039,1.38-18.06,2.069
	c-4.899,0.562-9.8,1.123-14.699,1.685c-3.7,0.424-7.399,0.848-11.099,1.271c-2.419,0.277-4.837,0.555-7.255,0.831
	c-1.057,0.121-2.113,0.242-3.169,0.363c-0.042,0.005-0.084,0.01-0.126,0.015c0.727,0,1.454,0,2.181,0c2.127,0,4.253,0,6.379,0
	c3.443,0,6.886,0,10.329,0c4.678,0,9.355,0,14.033,0c5.83,0,11.66,0,17.489,0c6.9,0,13.8,0,20.7,0c7.888,0,15.774,0,23.662,0
	c8.793,0,17.586,0,26.379,0c9.616,0,19.231,0,28.848,0c10.356,0,20.713,0,31.07,0c11.015,0,22.029,0,33.045,0
	c11.591,0,23.183,0,34.773,0c12.085,0,24.17,0,36.256,0c12.496,0,24.992,0,37.489,0c12.825,0,25.651,0,38.478,0
	c13.072,0,26.146,0,39.218,0c13.237,0,26.475,0,39.712,0c13.319,0,26.64,0,39.959,0s26.64,0,39.959,0c13.237,0,26.475,0,39.712,0
	c13.072,0,26.146,0,39.218,0c12.826,0,25.652,0,38.478,0c12.497,0,24.993,0,37.489,0c12.086,0,24.171,0,36.256,0
	c11.591,0,23.183,0,34.773,0c11.016,0,22.03,0,33.045,0c10.357,0,20.714,0,31.07,0c9.616,0,19.231,0,28.848,0
	c8.793,0,17.586,0,26.379,0c7.888,0,15.774,0,23.662,0c6.9,0,13.8,0,20.7,0c5.829,0,11.659,0,17.489,0c4.678,0,9.355,0,14.033,0
	c3.443,0,6.886,0,10.329,0c2.126,0,4.252,0,6.379,0C1918.546,110,1919.273,110,1920,110z"/>
</svg>
