<?xml version="1.0" encoding="utf-8"?>
<!-- Generator: Adobe Illustrator 16.0.0, SVG Export Plug-In . SVG Version: 6.00 Build 0)  -->
<!DOCTYPE svg PUBLIC "-//W3C//DTD SVG 1.1//EN" "http://www.w3.org/Graphics/SVG/1.1/DTD/svg11.dtd" [
	<!ENTITY ns_extend "http://ns.adobe.com/Extensibility/1.0/">
	<!ENTITY ns_ai "http://ns.adobe.com/AdobeIllustrator/10.0/">
	<!ENTITY ns_graphs "http://ns.adobe.com/Graphs/1.0/">
	<!ENTITY ns_vars "http://ns.adobe.com/Variables/1.0/">
	<!ENTITY ns_imrep "http://ns.adobe.com/ImageReplacement/1.0/">
	<!ENTITY ns_sfw "http://ns.adobe.com/SaveForWeb/1.0/">
	<!ENTITY ns_custom "http://ns.adobe.com/GenericCustomNamespace/1.0/">
	<!ENTITY ns_adobe_xpath "http://ns.adobe.com/XPath/1.0/">
]>
<svg version="1.1" id="Layer_1" xmlns:x="&ns_extend;" xmlns:i="&ns_ai;" xmlns:graph="&ns_graphs;"
	 xmlns="http://www.w3.org/2000/svg" xmlns:xlink="http://www.w3.org/1999/xlink" x="0px" y="0px" width="1920px" height="250px"
	 viewBox="0.5 110.5 1920 250" enable-background="new 0.5 110.5 1920 250" xml:space="preserve">
<metadata>
	<sfw  xmlns="&ns_sfw;">
		<slices></slices>
		<sliceSourceBounds  height="250.001" width="1920" x="0" y="-250" bottomLeftOrigin="true"></sliceSourceBounds>
	</sfw>
</metadata>
<path d="M0.5,360.5c0-12.318,0-24.636,0-36.954c0-27.455,0-54.909,0-82.366c0-28.345,0-56.691,0-85.039c0-14.99,0-29.976,0-44.968
	c0-0.223,0-0.446,0-0.673c0.717,0.187,1.435,0.375,2.152,0.562c2.099,0.544,4.198,1.094,6.297,1.638
	c3.399,0.886,6.799,1.771,10.198,2.654c4.619,1.203,9.238,2.408,13.857,3.611c5.758,1.498,11.517,2.996,17.275,4.497
	c6.817,1.775,13.634,3.551,20.451,5.324c7.795,2.031,15.589,4.06,23.384,6.088c8.692,2.264,17.384,4.527,26.075,6.792
	c9.509,2.477,19.017,4.953,28.525,7.431c10.244,2.668,20.488,5.335,30.733,8.001c10.899,2.839,21.798,5.678,32.698,8.516
	c11.474,2.987,22.948,5.976,34.421,8.963c11.968,3.116,23.935,6.236,35.903,9.353c12.38,3.223,24.761,6.445,37.142,9.672
	c12.713,3.312,25.426,6.623,38.139,9.931c12.965,3.375,25.93,6.751,38.896,10.129c13.136,3.423,26.271,6.841,39.406,10.266
	c13.227,3.444,26.453,6.887,39.68,10.331c13.235,3.449,26.472,6.894,39.707,10.341c13.166,3.427,26.33,6.855,39.496,10.282
	c13.013,3.388,26.025,6.776,39.039,10.168c12.781,3.329,25.562,6.656,38.341,9.985c12.469,3.249,24.937,6.494,37.403,9.743
	c12.074,3.143,24.148,6.288,36.222,9.431c11.601,3.021,23.199,6.041,34.8,9.062c11.045,2.877,22.089,5.753,33.134,8.63
	c10.409,2.708,20.816,5.42,31.227,8.128c9.692,2.525,19.386,5.051,29.077,7.572c8.896,2.319,17.791,4.635,26.687,6.951
	c8.018,2.089,16.035,4.178,24.052,6.264c7.059,1.842,14.118,3.678,21.177,5.518c6.021,1.566,12.04,3.134,18.061,4.701
	c4.899,1.278,9.8,2.552,14.699,3.83c3.699,0.964,7.399,1.927,11.099,2.888c2.418,0.628,4.837,1.263,7.255,1.889
	c1.057,0.275,2.113,0.551,3.169,0.826c0.042,0.009,0.084,0.021,0.126,0.033c-0.727,0-1.454,0-2.181,0c-2.126,0-4.253,0-6.378,0
	c-3.443,0-6.887,0-10.329,0c-4.679,0-9.355,0-14.033,0c-5.83,0-11.66,0-17.49,0c-6.899,0-13.8,0-20.7,0c-7.887,0-15.774,0-23.662,0
	c-8.793,0-17.586,0-26.379,0c-9.615,0-19.231,0-28.847,0c-10.356,0-20.713,0-31.07,0c-11.015,0-22.029,0-33.045,0
	c-11.591,0-23.183,0-34.772,0c-12.085,0-24.171,0-36.255,0c-12.498,0-24.993,0-37.49,0c-12.826,0-25.651,0-38.478,0
	c-13.072,0-26.145,0-39.218,0c-13.237,0-26.475,0-39.712,0c-13.32,0-26.639,0-39.959,0s-26.639,0-39.959,0
	c-13.237,0-26.475,0-39.712,0c-13.073,0-26.146,0-39.218,0c-12.826,0-25.652,0-38.478,0c-12.497,0-24.993,0-37.49,0
	c-12.085,0-24.17,0-36.255,0c-11.591,0-23.182,0-34.772,0c-11.015,0-22.03,0-33.045,0c-10.356,0-20.713,0-31.07,0
	c-9.616,0-19.232,0-28.848,0c-8.792,0-17.585,0-26.378,0c-7.887,0-15.775,0-23.662,0c-6.9,0-13.8,0-20.7,0c-5.83,0-11.66,0-17.49,0
	c-4.678,0-9.355,0-14.033,0c-3.443,0-6.886,0-10.329,0c-2.126,0-4.252,0-6.378,0C1.954,360.5,1.227,360.5,0.5,360.5z"/>
<path d="M1920.5,360.499c0-12.318,0-24.636,0-36.954c0-27.454,0-54.908,0-82.365c0-28.345,0-56.691,0-85.038
	c0-14.99,0-29.976,0-44.968c0-0.225,0-0.45,0-0.675c-0.718,0.187-1.436,0.375-2.152,0.562c-2.099,0.546-4.197,1.092-6.297,1.641
	c-3.397,0.885-6.798,1.771-10.197,2.654c-4.619,1.202-9.237,2.408-13.856,3.61c-5.759,1.498-11.519,2.997-17.275,4.497
	c-6.817,1.775-13.635,3.551-20.45,5.324c-7.796,2.031-15.591,4.06-23.386,6.088c-8.69,2.264-17.384,4.527-26.075,6.792
	c-9.509,2.477-19.017,4.953-28.524,7.431c-10.244,2.667-20.488,5.335-30.732,8.001c-10.899,2.839-21.799,5.677-32.698,8.516
	c-11.474,2.987-22.947,5.975-34.422,8.962c-11.967,3.116-23.935,6.237-35.902,9.354c-12.381,3.222-24.762,6.444-37.142,9.672
	c-12.713,3.312-25.427,6.623-38.14,9.93c-12.965,3.376-25.93,6.752-38.895,10.13c-13.136,3.422-26.271,6.84-39.408,10.265
	c-13.226,3.444-26.451,6.887-39.678,10.331c-13.235,3.449-26.472,6.894-39.708,10.341c-13.165,3.427-26.329,6.855-39.493,10.282
	c-13.015,3.388-26.026,6.776-39.041,10.168c-12.779,3.329-25.562,6.656-38.343,9.985c-12.467,3.249-24.936,6.494-37.401,9.743
	c-12.074,3.143-24.148,6.287-36.224,9.431c-11.6,3.021-23.198,6.041-34.799,9.062c-11.045,2.876-22.089,5.753-33.134,8.629
	c-10.409,2.708-20.817,5.42-31.228,8.128c-9.691,2.525-19.385,5.052-29.077,7.572c-8.896,2.319-17.789,4.635-26.686,6.951
	c-8.018,2.089-16.035,4.178-24.053,6.264c-7.06,1.842-14.117,3.678-21.178,5.518c-6.02,1.567-12.039,3.134-18.06,4.701
	c-4.899,1.278-9.8,2.552-14.699,3.83c-3.7,0.964-7.398,1.927-11.099,2.888c-2.419,0.628-4.837,1.263-7.255,1.889
	c-1.058,0.275-2.113,0.551-3.169,0.826c-0.042,0.009-0.084,0.021-0.126,0.033c0.727,0,1.454,0,2.181,0c2.127,0,4.253,0,6.379,0
	c3.443,0,6.887,0,10.329,0c4.678,0,9.355,0,14.033,0c5.83,0,11.66,0,17.489,0c6.899,0,13.8,0,20.699,0c7.889,0,15.774,0,23.662,0
	c8.793,0,17.586,0,26.379,0c9.616,0,19.231,0,28.849,0c10.355,0,20.713,0,31.069,0c11.016,0,22.029,0,33.046,0
	c11.591,0,23.183,0,34.772,0c12.085,0,24.17,0,36.256,0c12.496,0,24.992,0,37.489,0c12.825,0,25.651,0,38.478,0
	c13.072,0,26.146,0,39.219,0c13.236,0,26.475,0,39.712,0c13.319,0,26.64,0,39.959,0s26.64,0,39.959,0c13.237,0,26.475,0,39.712,0
	c13.072,0,26.146,0,39.218,0c12.826,0,25.652,0,38.479,0c12.497,0,24.993,0,37.489,0c12.086,0,24.17,0,36.256,0
	c11.591,0,23.183,0,34.772,0c11.017,0,22.03,0,33.045,0c10.357,0,20.714,0,31.07,0c9.616,0,19.231,0,28.848,0
	c8.793,0,17.587,0,26.38,0c7.887,0,15.773,0,23.661,0c6.9,0,13.8,0,20.7,0c5.829,0,11.659,0,17.489,0c4.678,0,9.354,0,14.032,0
	c3.443,0,6.887,0,10.33,0c2.125,0,4.252,0,6.379,0C1919.046,360.499,1919.773,360.499,1920.5,360.499z"/>
</svg>
