<svg fill="none" xmlns="http://www.w3.org/2000/svg" viewBox="0 0 1000 83">
  <path fill-rule="evenodd" clip-rule="evenodd"
    d="M902 23a.998.998 0 0 0 0-1 .998.998 0 0 1 0-1 4.99 4.99 0 0 0-1 1l1 1Zm-73-11a2.997 2.997 0 0 0 0-1 .997.997 0 0 0 0 1Zm-58 7 1-1v-1a6.953 6.953 0 0 0 0-1l-1 2v1Zm-41 1a5.963 5.963 0 0 0 0-1v1Z"
    fill="#EBEBEB" />
  <path fill-rule="evenodd" clip-rule="evenodd"
    d="m991 22-2-1a5.994 5.994 0 0 1 0 2v-2a2.997 2.997 0 0 1 0-1l-2-1v1-2a21.023 21.023 0 0 1-1 2v1h-1v2-1a4.008 4.008 0 0 1 0 2v-1c-.271.39-.61.729-1 1v1a5.963 5.963 0 0 1 0-1 5.963 5.963 0 0 1 0-1c-.444-.2-.8-.556-1-1v1c0-1 0 1 0 0a9.037 9.037 0 0 1 0 2v-3a2.998 2.998 0 0 1-1-2 7.033 7.033 0 0 1-1-1v1l-1-2-1 1c-1 0 0-1 0 0v-1h-2v-2a15.156 15.156 0 0 1 0-1c0-2-1 1-1-1v-1c0-2 1 1 1 1a.998.998 0 0 0 0-1 .998.998 0 0 1 0-1h1l-1 1h1v-1c.042.332.042.668 0 1v1l1 1 1 1v-4l-1-1V8h-1a2.997 2.997 0 0 1 0-1v2h-2a.998.998 0 0 1 0 1V9c.056.33.056.669 0 1V9a2.997 2.997 0 0 1 0-1v1a1.993 1.993 0 0 1 0-1l-1 2V9h-1a4.008 4.008 0 0 1 0 2v-1a14.98 14.98 0 0 0-2 1l-2 4v3-2l-1 1a1.993 1.993 0 0 1 0-1l1-1v1a1.993 1.993 0 0 0 0-1c-1-1-1-2-2-1l-4 5h-4l-3 2a5 5 0 0 0-4 2c-1 1 0 4-2 4h-5l-4-1h-1l-2-3v-1a17.03 17.03 0 0 1-1 4v-4 2-1a5.063 5.063 0 0 1 0-1 5.994 5.994 0 0 1 0 2h-1c.042.332.042.668 0 1v2-1a5.963 5.963 0 0 1 0-1 25.013 25.013 0 0 1 0-5v-1a2.002 2.002 0 0 0-2-1v1l-1 2v-1l-1-2v2l-1-1h-1v-1a5.063 5.063 0 0 1 0-1h-2a10.03 10.03 0 0 1-1 2v3h-1v-2l-2-1a1.993 1.993 0 0 1 0-1 2.997 2.997 0 0 1 0-1c.135.66.135 1.34 0 2-1 1-1-1-1-2h-1a1.993 1.993 0 0 0 0 1c.056.331.056.669 0 1a2.997 2.997 0 0 0 0 1 .997.997 0 0 1 0 1h-1v1c0 1-1 2-1 0s1 0 1-1c0-2-1-1-1-1a6.953 6.953 0 0 1 0-1h-1v2l-1-2v1a2.997 2.997 0 0 1 0-1v3l-1-1a3.984 3.984 0 0 0 0 1v1l-1-1a10.952 10.952 0 0 1 0-2v2-1a3.002 3.002 0 0 1-1 0v2l-1 1v1l-1-1v-1l-1 5v-2l-1 1v2-4l-1 4-1 1v2-1a5.063 5.063 0 0 1 0-1 5.994 5.994 0 0 1 0 2c-.271.39-.61.729-1 1v2-1a5.963 5.963 0 0 1 0-1 24.988 24.988 0 0 1-1-5v-2h-1a3.984 3.984 0 0 1 0-1 6.953 6.953 0 0 1 0-1 16.966 16.966 0 0 1-1 2l1 1a.998.998 0 0 1-1 1v1h-1v-3l-1 2v-1h-2v-3c-1-2-1 1-1-1-.351.315-.685.649-1 1 .042.332.042.668 0 1v-1l-2 4-2 4c-2 2-3 4-4 3a4 4 0 0 1-3-2l-2-1-2 3c-1 1-1 4-3 5l-3 2a2.998 2.998 0 0 1-1 2v-2a4.003 4.003 0 0 1-1 0v3l-1-2v1l-1 2v-3l-1 2v-2l-1 1v-2a5.993 5.993 0 0 0-1 2l-1 2-1-2a5 5 0 0 1-2 2l-3 1c.061.665.061 1.335 0 2 .044.666.044 1.334 0 2a7.968 7.968 0 0 1 0 2l-1 1v-1h-1s-1 1-1-1l1 1v-2l-1 1v-1a7.968 7.968 0 0 1 0-2l-1 1v3a2.997 2.997 0 0 1 0-2c-.75.578-1.422 1.25-2 2 0 3-2 6-3 4l-4-8-3-9c-1 1-2-2-3-4v1a7.968 7.968 0 0 1 0-2l-1-1v2a6 6 0 0 1 0-3l-1-1v4c-1 0-1-2-2-1l1 2c0-1 0 1 0 0l-1 2-1 3v-2l1-1-1-1a.998.998 0 0 1 0-1c1-1 1 3 1 2a7.968 7.968 0 0 0 0-2 5.063 5.063 0 0 0 0-1v1c-1-1-1-5-2-3l1 1a2.998 2.998 0 0 1-1 2 5 5 0 0 1-1 2v1a6.994 6.994 0 0 1 0-3c0-1 1 1 1-1a5.063 5.063 0 0 0 0-1h-1a7.987 7.987 0 0 1-1-3 3.984 3.984 0 0 1 0-1l1-2v-2l-1-4v2l-1-2v2-1a3.004 3.004 0 0 1-1 1v2h-1v-1l-1 1v-1l-1-1a9.037 9.037 0 0 1 0-2 5.963 5.963 0 0 1 0-1 4.99 4.99 0 0 1 1-1l-1 1h1c0-1 0-1 0 0a.997.997 0 0 1 0 1l1-1v1-3l-1-1c0 1 0 1 0 0l-1 2c.085.328.085.672 0 1h-1v-1a13.98 13.98 0 0 1-1 3l1-2-1-1v2-1a8.78 8.78 0 0 1 0 1l-1 2a11.117 11.117 0 0 1 0-1v2-1a5.963 5.963 0 0 1 0-1 2.997 2.997 0 0 1 0-1 2.998 2.998 0 0 0-1 2l1 2a13.97 13.97 0 0 1-1-2 3.984 3.984 0 0 1 0-1l-1-1v1c.056.331.056.669 0 1 0-1 0 0 0 0v1a5.994 5.994 0 0 1 0-2 3.984 3.984 0 0 1 0-1v-1c-1 0 0 6-1 5v-8 1c0 1 0 2-1 1a5.063 5.063 0 0 1 0-1v1a6.994 6.994 0 0 1 0 3h-1v1-5l-1 2v-2a3.004 3.004 0 0 1-2-3c-.911.558-1.937.9-3 1-4 1-3 0-4-2a5.063 5.063 0 0 0 0-1 12.991 12.991 0 0 1-1-2c-.444.2-.8.556-1 1v5c-1 1-1-3-1-1l-1 2v-3l1-2c-1-1-1 2-2 1a4.989 4.989 0 0 1 0-2h1a2.997 2.997 0 0 0 0-1c-1-1-1 1-1-1a.998.998 0 0 1 0-1l1 1c0-3-2-1-2-4a9.003 9.003 0 0 1 1-3l1-1v7l1-2V7a42.772 42.772 0 0 1-1-3V3l-1-1-2 1c.271.39.61.729 1 1v3-1a2.999 2.999 0 0 1-1 3V8l-1 1V8s-1 1-1-1 2 1 1-2a5.963 5.963 0 0 0 0-1 9.012 9.012 0 0 0-1 2 9.99 9.99 0 0 1 0 3 7.009 7.009 0 0 1-1-2v1a3.984 3.984 0 0 0 0 1v1l1 1 1-1v5-4c1-2 1-2 2 0v1c0 5-2 5-3 4v-1c0-2-1 0-1 0l-1 1-1 1-1 1v1-2l-1 2v-3l-1 5-1 3a3.984 3.984 0 0 1 0-1c-1 3 0 4-2 5a21.974 21.974 0 0 0-2 2l-4-1c-1 1-2 1-2-1s0-9-2-10-1-2-3-1l-3 3c-2 3-1 4-3 4s-3-1-4-4v1a3.984 3.984 0 0 1 0-1v-2a9.045 9.045 0 0 1-1 1c0 1 0 0 0 0l1-1a7.022 7.022 0 0 0-1-1v-1c.061.665.061 1.335 0 2v-2h-1v4-1a5.063 5.063 0 0 1 0-1 5.996 5.996 0 0 1-1 3v-1c.042.332.042.668 0 1v1a6.953 6.953 0 0 1 0-1 25.013 25.013 0 0 1 0-5v-1h-2v1l-1 1-1-2a7.028 7.028 0 0 1-1 1v-1h-1l-5 6-4-6-5-6-4-3h-1v1c0-1 0 1 0 0 .024.333.024.667 0 1V6h-2a9.037 9.037 0 0 0 0 2c.056.331.056.669 0 1l-1 1v2-3l-1 3c0 1 0 2 0 0v-2a5.963 5.963 0 0 1 0-1l-1-1v1l-1 1 1 1c-1 2-1-1-1-2v1a1.993 1.993 0 0 1 0-1v1h-1c0 3 1 0 1 1v1l-1 1v-1a.998.998 0 0 1 0-1 1 1 0 0 1-1 0v1l1 1a.998.998 0 0 1-1 1v-2h-1l-1 1v1a3.984 3.984 0 0 0 0-1 .999.999 0 0 0-1 1c0-1 0-1 0 0l-1 5v-4l-1 1c-1 0 0 1 0 0v2h-1l1-3-1 4a3.984 3.984 0 0 1 0-1 .998.998 0 0 0 0-1l-1 1v4a5.063 5.063 0 0 1 0-1 5.994 5.994 0 0 1-1 2v-1c.042.332.042.668 0 1v3-1a5.994 5.994 0 0 1 0-2 25.013 25.013 0 0 1 0-5v-1a2.998 2.998 0 0 1-1-2l1 1v-1c-.578.75-1.25 1.422-2 2v1l-1 1a3.004 3.004 0 0 1-1-1l-1 1h-2l-1 1h-1v5c-1 1-1-1-1-2l-1 1v2l-1-2v1l-1-1-1 2v-1l-1-1 1-1h-1a5.993 5.993 0 0 0-1 2l-1 2-1-2h1l-1-1v1h-1s0 2-1 1v-1l1-3h-1v-1l1-1-2 1-1 1v-1a6.006 6.006 0 0 1-1 0 10.998 10.998 0 0 0-4 0 6 6 0 0 1-3 0 5.994 5.994 0 0 1 0 2l-1 2a3.994 3.994 0 0 0 1 2v1a5.994 5.994 0 0 1 0 2v1l-1-4v1l-1 1-1-2h-1v-2l-1 1-1-1v1c.056-.666.056-1.334 0-2l-1-1-1 1-2-6v-1c-1 1-1 0-1-1l1 1-2-4v5-3l-1 2a6.994 6.994 0 0 1 0-3l1-2v-1a3.984 3.984 0 0 0 0-1 4.995 4.995 0 0 1-1 1v1l-1-1 1 5-1 1-1-1v2c0-1 0 1 0 0v2c-1 2-1 5-2 3l1-1-1-1 1-1-1-1a.998.998 0 0 1 0-1c1-1 1 3 1 2a7.968 7.968 0 0 0 0-2 5.063 5.063 0 0 0 0-1v1c-1-1-1-4-2-3l1 2c.056.331.056.669 0 1a5 5 0 0 1-2 2h-1v1c.1-1.063.442-2.09 1-3 0 1 0 0 0 0 .135-.66.135-1.34 0-2l-1 1a7.986 7.986 0 0 1-1-3 1.993 1.993 0 0 1 0-1h-6l-4 1h-2v27-28c-4 7-10 7-10 7l-1-1a5.994 5.994 0 0 1 0 2l-1-1v1-2a2.997 2.997 0 0 1 0-1l-1-1v1l-1-1v2-2l-1 2v-1a2.997 2.997 0 0 1 0-1v5-1a2.997 2.997 0 0 1 0-1l-1 1c.042.332.042.668 0 1v3l-1-1a5.992 5.992 0 0 1 1-1v-1a5.996 5.996 0 0 1-1-1l-1 1h1a9.045 9.045 0 0 1-1 1v1a3.984 3.984 0 0 1 0-1v-2a2.998 2.998 0 0 1-1-2 6.953 6.953 0 0 1 0-1v1l-1-1v-2l-1 1h-1l-1-1v-2 1l-1-2v-1c.056.331.056.669 0 1v-1c0-3 0 1 1 0a1.993 1.993 0 0 0 0-1h1a3.002 3.002 0 0 1-1 0l1 1 1 1 1-2h-1V8a1.993 1.993 0 0 1 0-1V6h-1v1a2.997 2.997 0 0 1 0-1v1h-1l-1 1a.998.998 0 0 1 0 1 .998.998 0 0 1 0-1 2.997 2.997 0 0 1 0-2l-1 1v1a3.984 3.984 0 0 0 0-1l-1 1c.033.332.033.667 0 1V8c-.691.283-1.359.617-2 1l-2 5v1h-1a1.993 1.993 0 0 1 0-1h1c-1 0 1 1 0 0a1.993 1.993 0 0 0 0-1c-2-1-1-2-3-1s-2 5-3 5h-4c-2 1-2 3-4 3a4.998 4.998 0 0 0-3 2c-1 1 0 3-2 3h-5l-4-1h-1l-2-3v-1a1.993 1.993 0 0 0 0 1 15.936 15.936 0 0 1-1 3v-3a5.963 5.963 0 0 1 0-1v2a5.063 5.063 0 0 1 0-1 5.994 5.994 0 0 1-1 2v-1c.042.332.042.668 0 1v2a5.994 5.994 0 0 1 0-2 25.013 25.013 0 0 1 0-5 2.002 2.002 0 0 0-2-1 .998.998 0 0 1 0 1l-1 1-1-2v1h-1v-1h-1a5.063 5.063 0 0 1 0-1 17.983 17.983 0 0 0-2 0 9.013 9.013 0 0 1-1 2c0-1 0 0 0 0v3h-1v-3l-2-1a1.993 1.993 0 0 1 0-1c.135.66.135 1.34 0 2l-1-2h-1a2.997 2.997 0 0 1 0 2h-1a1 1 0 0 1 1 1h-1c.085.328.085.672 0 1 0 1-1 2-1 0v-2a3.984 3.984 0 0 1 0-1 2 2 0 0 1-1 0v2c0 2-1 0-1-1v3h-1v-2c-.39.271-.729.61-1 1l1 1a.998.998 0 0 1 0 1l-1-1v-1a11.117 11.117 0 0 1 0-1 3.002 3.002 0 0 1-1 0 .998.998 0 0 1 0 1v2h-1a3.984 3.984 0 0 0 0-1 1 1 0 0 0-1 1l-1 5v-3l-1 2v1-3l-1 4v-1a3.984 3.984 0 0 1 0-1 .998.998 0 0 0 0-1v3l-1 1v2-1a5.063 5.063 0 0 1 0-1 5.994 5.994 0 0 1-1 2v3-1a5.994 5.994 0 0 1 0-2 24.962 24.962 0 0 1 0-4v-2a1.993 1.993 0 0 1 0-1h-1a3.996 3.996 0 0 1-1-1 6.953 6.953 0 0 1 0-1c.039.666.039 1.334 0 2v1a.998.998 0 0 1 0 1l-1 1-1-2v1h-1v-1h-1c-1 0 0 1 0 0v-2l-1-1v2a15.168 15.168 0 0 1 0-2c0-1-1 1-1-1-.39.637-.725 1.306-1 2l-1 3-2 4c-1 2-3 4-5 4a3.998 3.998 0 0 1-3-2l-3-2-1 4-3 4-4 3c.056.331.056.669 0 1v-1l-1-1c.042.332.042.668 0 1v1l-1-1v2-1l-1 1-1 2 1-3-1-1-1 1v-2h-1c-1 0 1 0 0 0a5.994 5.994 0 0 0-1 2v2c-1 0-2 0-1-1v-1h-1a5 5 0 0 1-1 2l-3 1-1 1c.4.631.735 1.301 1 2 .044.666.044 1.334 0 2a7.968 7.968 0 0 1 0 2l-1 1-1-2v1l-2-1h1v-1a8.01 8.01 0 0 1-1-2v1h-1v2a2.997 2.997 0 0 1 0-2 11 11 0 0 0-1 3c-1 2-3 5-4 3l-3-7c-1 0-3-10-4-9l-2-5-1 1a7.968 7.968 0 0 1 0-2s0 2-1 1a5.994 5.994 0 0 1 0-2v1l-1 1v1l-1 1v2l-1 3v-5a.998.998 0 0 1 0-1s0 4 1 3a7.968 7.968 0 0 0 0-2 5.063 5.063 0 0 0 0-1h-1l-1-2v1c.042.332.042.668 0 1a5 5 0 0 1-1 2h-1v1c.1-1.063.442-2.09 1-3h1a5 5 0 0 0-1-2l-1 1a8.007 8.007 0 0 1 0-3 4.008 4.008 0 0 1 0-2l1-2-1-2c0-1 0-4-1-3v2l-1-2c.056.331.056.669 0 1 .056.331.056.669 0 1h-1v2l-1-2v1l-1-1v-1a8.78 8.78 0 0 1 0-1v-1a8.78 8.78 0 0 1 0-1 5.063 5.063 0 0 1 0-1v1a.998.998 0 0 1 0 1l1 1v-3a.998.998 0 0 1 0-1l-1-1a.998.998 0 0 1 0 1l-1 2h-1c.116.997.116 2.003 0 3v-3c.011.333.011.667 0 1a2.997 2.997 0 0 1 0-1h-1c.024.333.024.667 0 1v3a10.952 10.952 0 0 1 0-2v2a5.994 5.994 0 0 1 0-2 2.997 2.997 0 0 1 0-1 .998.998 0 0 1-1 0 3.003 3.003 0 0 0 0 3v2a13.977 13.977 0 0 1-1-3v1a3.984 3.984 0 0 1 0-1c.056.331.056.669 0 1h-1a5.963 5.963 0 0 1 0-1 3.984 3.984 0 0 1 0-1v-1h1l-1 4v-7a.998.998 0 0 1 0 1l-1 1a5.063 5.063 0 0 1 0-1v1a6.98 6.98 0 0 1 0 2l-1 1-1 1 1-4v-1h-1v1-2a2.993 2.993 0 0 1-2-2c-.911.558-1.937.9-3 1-4 1-3 0-4-2a3.984 3.984 0 0 0 0-1 13.998 13.998 0 0 1-2-2h-1l1 2-1 1v2l-1-1v2l-1-2 1-2c0-2-1 1-1 1a4.989 4.989 0 0 1 0-2c0 1 0-1 0 0a2.997 2.997 0 0 0 0-2c0-1-1 1-1-1a.998.998 0 0 1 0-1l1 1-1-3a8.992 8.992 0 0 1 0-3l1-1v1l1 2v3-2h1l-1-1a39.87 39.87 0 0 1-1-4c0-2 0-2-1-1l-1 1v3l1-2v2a2.998 2.998 0 0 1-1 2l-1-1v1l-1-1h-1c0-3 2 0 2-2a5.963 5.963 0 0 0 0-1 8.996 8.996 0 0 0-2 2 9.99 9.99 0 0 1 0 3 6.994 6.994 0 0 1 0-3l-1 1a3.984 3.984 0 0 0 0 1l1-1v3l1 1v2l1 1V9c0-2 1-1 1 0l1 1c0 5-2 5-3 5l-1-1 1-1h-1l-1 1-2 1v3l-1-2v2-3h-1l-1 4c.085.328.085.672 0 1v2a3.984 3.984 0 0 1 0-1l-2 5a22.017 22.017 0 0 0-3 3l-4-2c-1 0-1 2-2-1s0-8-1-9-2-2-3-1l-3 3c-2 3-1 4-3 4s-3-1-4-4l-1 1a3.984 3.984 0 0 1 0-1h1a2.997 2.997 0 0 0 0-1l-1-2a8.78 8.78 0 0 1 0 1c0 1 0 1 0 0v-2h-1c.015.333.015.667 0 1v-1a2.997 2.997 0 0 0 0-1v5l-1-1a5.063 5.063 0 0 1 0-1 5.994 5.994 0 0 1 0 2l-1 1v2-1a5.994 5.994 0 0 1 0-2 24.962 24.962 0 0 1 0-4v-2h-2v1l-1 1v-2h-1c.024.333.024.667 0 1h-1v-1c-.444.2-.8.556-1 1l-5 6-4-6-5-7-4-2h-1c.021.333.021.667 0 1V4h-1v1c-.444-.2-.8-.556-1-1v2-1a9.037 9.037 0 0 0 0 2c.056.331.056.669 0 1h-1v3c0 1-1 2-1 0s0 0 1-1c0-2-1-1-1-1a6.953 6.953 0 0 1 0-1V7a1.993 1.993 0 0 1 0-1l-1 2v2l-1-2v3l-1-1v2l-1-1 1-1h-1v1a1.993 1.993 0 0 1 0-1c.033.332.033.668 0 1v-1h-1v2l-1 1v-1c.332.042.668.042 1 0v-1l-1 1v3-1l-1-1v4c-1 1-1 0-1-1v-1l-1-1v4-4l-1 4-1 1v2-1a5.063 5.063 0 0 1 0-1 5.994 5.994 0 0 1 0 2c-.271.39-.61.729-1 1v1a5.963 5.963 0 0 1 0-1 25.013 25.013 0 0 1 0-5v-2a2.997 2.997 0 0 1 0-1c-.578.75-1.25 1.422-2 2v1l-1 1a2.997 2.997 0 0 1 0-1l-2 1h-2v1h-1l-1 5v-3l-1 1v1h-1v1h1l-1 1v-2l-1 1-1 2 1-3h-1l-1 1v-3h-1v1a5.996 5.996 0 0 0-1 1l-1 3v-3l-1 1h-1v1-4c0-1 0 1 0 0v-2h-2c.085.328.085.672 0 1l-1 1v-1a6.006 6.006 0 0 1-1 0 11.003 11.003 0 0 0-4 0 6 6 0 0 1-2 0 5.993 5.993 0 0 1-1 2v2a3.984 3.984 0 0 0 0 1l1 2a5.993 5.993 0 0 1-1 2v-3l-1 1-1 1-1-2v-1h-1c0-1 0 1 0 0v-1l-1 1v-1l-1 1c.051-.666.051-1.334 0-2v-1h-2l-2-6-1-4v2l-1 3v-3c-1 0 0 2-1 1 .1-1.063.442-2.09 1-3v-2a.998.998 0 0 1 0-1c.042.332.042.668 0 1v1h-1s0-2-1-1l1 5h-1v1s-1-3-1-1l1 2h-1v2l-1 3v-5c0-1 0 3 1 2a7.968 7.968 0 0 0 0-2 5.063 5.063 0 0 0 0-1h-1l-1-2v1a2.997 2.997 0 0 1 0 2 4.995 4.995 0 0 1-1 1l-1 1c-1 0 0 1 0 0 .1-1.063.442-2.09 1-3h1a4.995 4.995 0 0 0-1-1h-1a8.007 8.007 0 0 1 0-3 1.993 1.993 0 0 1 0-1h-7l-4 1h-2v1c-4 7-9 7-9 7l-2-1a5.993 5.993 0 0 1-1 2v-2a2.997 2.997 0 0 1 0-1l-1-1-1 1v-1a19.06 19.06 0 0 1 0 2v-2l-1 2v-1a3.984 3.984 0 0 1 0-1v5-1h-1a2.997 2.997 0 0 1 0-1v1c.042.332.042.668 0 1v3l-1-1a5.996 5.996 0 0 1 1-1v-1a5.992 5.992 0 0 1-1-1l-1 1h1c-.307.36-.641.693-1 1v1a3.984 3.984 0 0 1 0-1v-2a2.998 2.998 0 0 1-1-2 5.963 5.963 0 0 1 0-1l-1 1v-1l-1-2v1h-2v-3h-1v1a14.832 14.832 0 0 1 0-2l-1-1c0-3 1 1 2 0l1 1h1v1-6a1.993 1.993 0 0 1 0-1V6h-1v1a3.003 3.003 0 0 1-1-1v1a3 3 0 0 1-1 0v1a.998.998 0 0 1 0 1h-1a.998.998 0 0 1 0-1 2.997 2.997 0 0 1 0-2v1l-1 1h-1c.042.332.042.668 0 1V8c-.348.318-.682.652-1 1l-2 5v2h-1v-1a1.993 1.993 0 0 1 0-1c0-1 0 0 0 0a1.993 1.993 0 0 0 0-1c-1-1 0-2-2-1s-3 5-4 5h-3l-4 3a4.999 4.999 0 0 0-3 2c-1 1-1 3-3 3h-4l-5-1c-1 0-1 1-3-3v-1a1.993 1.993 0 0 0 0 1c.094.998.094 2.002 0 3v-2h-1a5.063 5.063 0 0 1 0-1 5.994 5.994 0 0 1 0 2v-1c.042.332.042.668 0 1v1l-1 1a5.994 5.994 0 0 1 1-2 .998.998 0 0 1-1 0 25.013 25.013 0 0 1 0-5 2.003 2.003 0 0 0-2-1v2h-1v-2h-3a5.063 5.063 0 0 1 0-1 18.032 18.032 0 0 0-2 0 9.037 9.037 0 0 1 0 2c0-1 0 0 0 0v3h-1l-1-3-1-1a1.993 1.993 0 0 1 0-1h-1c.135.66.135 1.34 0 2v-2h-1a2.998 2.998 0 0 1-1 2c0-1 0 0 0 0v1c.085.328.085.672 0 1v1-4c-1-1-1 2-1 3s0 2 0 0v-2a5.003 5.003 0 0 1-1 0 3.984 3.984 0 0 1 0-1 .998.998 0 0 1 0 1v-1l-1 1-1 1c0 2 1-1 1 1l-1 1-1-2a3.984 3.984 0 0 0 0 1v1a.998.998 0 0 1 0 1v-2a11.117 11.117 0 0 1 0-1v1l-1-1a.998.998 0 0 1 0 1l-1 1v1a3.984 3.984 0 0 0 0-1l-1 3v-3a.998.998 0 0 0 0 1v2-1l-1-1v5-3l-1 1-1 2 1-3h-1v4-2s0 2-1 1 1-1 1-1l-1 2v-1a3.984 3.984 0 0 1 0-1 .997.997 0 0 0 0-1v6-1h-1a5.063 5.063 0 0 1 0-1 5.994 5.994 0 0 1 0 2v1l-1 2v-1a5.994 5.994 0 0 1 1-2 25.028 25.028 0 0 1-1-4v-2a1.993 1.993 0 0 1 0-1h-1a3.984 3.984 0 0 1 0-1 6.953 6.953 0 0 1 0-1 16.966 16.966 0 0 1-1 2l1 1a.998.998 0 0 1-1 1v1h-1v-2l-1 1v-1h-2v-1l-1-2v-1c-.39.637-.725 1.306-1 2l-2 3-2 4-4 4a3.997 3.997 0 0 1-3-2l-3-2c-1 0 0 3-2 4s-1 3-3 4l-3 3c.056.331.056.669 0 1-1 1-1-1-1-1v1l-1-1v2s0-2-1-1v1l-1 2 1-3h-1v-1l-1 1-1-1 1-1h-1a5.994 5.994 0 0 0-1 2l-1 2-1-1 1-1h-1a5 5 0 0 1-2 2l-2 1v1l-1-1v1c.4.631.735 1.301 1 2 .044.666.044 1.334 0 2a7.968 7.968 0 0 1 0 2l-1 1-1-2v1l-2-1h1v-1a8.008 8.008 0 0 1-1-2l-1 1v2a2.997 2.997 0 0 1 0-2 11 11 0 0 0-1 3c-1 2-3 5-4 3l-3-7s-3-10-4-9l-3-5v1a7.968 7.968 0 0 1 0-2l-1 1a5.994 5.994 0 0 1 0-2l-1-2 1 3-1 1v1l-1 1v2l-1 3v-2l-1-1 1-1-1-1a.998.998 0 0 1 1-1s0 4 1 3a6.98 6.98 0 0 0 0-2 3.984 3.984 0 0 0 0-1h-1l-1-2v1c.042.332.042.668 0 1a5 5 0 0 1-1 2h-1v1a5.996 5.996 0 0 1 1-3c0 1 0 0 0 0 .135-.66.135-1.34 0-2l-1 1a7.986 7.986 0 0 1-1-3 3.995 3.995 0 0 1 1-2l1-2-1-2c0-1 0-4-1-3l-1 2v-2c.056.331.056.669 0 1 .056.331.056.669 0 1h-1v2l-1-2-1 1v-1l-1-1a8.78 8.78 0 0 1 0-1v-1h1a5.963 5.963 0 0 1 0-1 5.063 5.063 0 0 1 0-1v1a.998.998 0 0 1 0 1v1l1-2v2-4l-1-1c.085.328.085.672 0 1l-1 2h-1c.107.997.107 2.003 0 3v-3c.011.333.011.667 0 1h-1a2.997 2.997 0 0 1 0-1 8.78 8.78 0 0 1 0 1c0 2 0 4-1 3a10.03 10.03 0 0 1 1-2l-1 1a5.963 5.963 0 0 1 0-1 2.997 2.997 0 0 1 0-1 3.003 3.003 0 0 0 0 3v2a13.977 13.977 0 0 1-1-3v-1h-1c.085.328.085.672 0 1 1-1 0 0 0 0v1a5.963 5.963 0 0 1 0-1 .997.997 0 0 1 0-1 3.984 3.984 0 0 1 0-1v4-7h-1c.033.332.033.668 0 1v1a5.063 5.063 0 0 1 0-1h-1v1h1a7.007 7.007 0 0 1-1 2v1l-1-1v1l1-3v-1h-1v1-2a2.993 2.993 0 0 1-2-2c-.911.558-1.937.9-3 1-4 1-3-1-4-3a3.998 3.998 0 0 0-1-1c-.35-.316-.684-.65-1-1h-1l1 2-1 1v2l-1-1v2l-1-2 1-3-1 2a4.989 4.989 0 0 1 0-2c0 1 0-1 0 0a2.997 2.997 0 0 0 0-2c0-1-1 1-1-1a.997.997 0 0 1 0-1l1 1-1-4a9.037 9.037 0 0 1 0-2l1-1v1l1 2v3-2h1l-1-1V4l-1-2c0-2 0-2-1-1l-1 1v3l1-2v2a2.998 2.998 0 0 1-1 2l-1-1v1l-1-1h-1c0-3 2 0 2-2a5.963 5.963 0 0 0 0-1 8.996 8.996 0 0 0-2 2 9.99 9.99 0 0 1 0 3 6.994 6.994 0 0 1 0-3l-1 1a3.984 3.984 0 0 0 0 1l1-1v3l1 1v2c0 1 0 2 1 1V9c0-2 1-1 1 0l1 1c0 5-2 5-3 5l-1-1 1-1h-1l-1 1-2 1v2l-1-1v2-3h-1l-1 4c.085.328.085.672 0 1v2a3.984 3.984 0 0 1 0-1l-2 5a22.022 22.022 0 0 0-3 3l-4-2c-1 0-1 2-2-1s0-8-1-9-2-2-4-1l-2 3-3 4c-1 0-3-1-4-4l-1 1a2.997 2.997 0 0 1 0-1c.056-.33.056-.669 0-1v-1c.024.333.024.667 0 1l-1-1h1v-1a7.012 7.012 0 0 0-1 0v-1c.015.333.015.667 0 1l-1 1v2-1a5.063 5.063 0 0 1 0-1 5.994 5.994 0 0 1 0 2 3.993 3.993 0 0 1-1 0v3-1a5.994 5.994 0 0 1 0-2 24.962 24.962 0 0 1 0-4v-2h-2v1l-1 1-1-2c.024.333.024.667 0 1h-1v-1a2 2 0 0 0-1 1l-5 6-4-7-5-6-4-2h-1v1-2h-1v1a2 2 0 0 1 0-1h-1v2-1a9.016 9.016 0 0 0 0 1 3 3 0 0 1 0 2v2h-1s-1 3-1 1 0 0 1-1c0-2-1-1-1-1a7.012 7.012 0 0 1 0-1V7a2 2 0 0 1 0-1l-1 2v2l-1-2v3l-1-1h-1v1a2 2 0 0 1 0-1c.024.333.024.667 0 1v-1h-1v1l-1 1v2l-1-1v-1l-1 5v-3l-1 1v3-4l-1 4-1 1v2-1a5.003 5.003 0 0 1 0-1 6 6 0 0 1 0 2 4 4 0 0 1-1 1v2-1a7.012 7.012 0 0 1 0-1 24.998 24.998 0 0 1 0-5v-2a2.999 2.999 0 0 1-1-1c-.578.75-1.25 1.422-2 2l-1 2v-1l-1 1h-2l-1 1-1-1-1 6v-3l-1 1v2l-1 1v-2l-1 1c0 1 0 3-1 2s1-2 1-3c-1 0-1 3-2 2s1-3 1-3l-1 1v-1a6.003 6.003 0 0 0-1 1l-1 2-1-1v-1h-1v1l-1 1v-6h-1a2 2 0 0 1-1 1 6 6 0 0 1-2 0 11.003 11.003 0 0 0-4 0 6 6 0 0 1-2 0 6 6 0 0 1 0 2l-1 2a4.003 4.003 0 0 0 0 1l1 2a6 6 0 0 1-1 2v-3c0-1 0 1 0 0l-1 2v-1l-1 1-1-2v-2h-2v-1l-1 2c.395-.634.73-1.304 1-2l-1-1v-1l-1 1s-1 1-3-6l-1-4v2c0 1 0 3-1 2s1-3 0-2v1a7 7 0 0 1 0-3l1-1-1-1a1 1 0 0 1 0-1v2h-1v4h-1v1s0-3-1-1l1 2h-1v2l-1 3v-5l1 2a7.002 7.002 0 0 0 0-2 4.003 4.003 0 0 0 0-1h-1l-1-2v1c.056.331.056.67 0 1a5 5 0 0 1-1 2c0 1 0 1 0 0l-1 1a7 7 0 0 1 1-3h1a5.003 5.003 0 0 0 0-1h-2a8 8 0 0 1 0-3 2 2 0 0 1 0-1H6l-4 1H0v71l1000 2V15c-4 7-9 7-9 7Zm-13-10a1.993 1.993 0 0 1 0-1v1Zm-1-2h1v1h-1a.998.998 0 0 1 0-1Zm0 0c0 1 0 1 0 0ZM643 9l1-1v1h-1Zm-332 1h1l-1 1v-1ZM13 34h-1l1 1v-1Zm1-1-1-1a3 3 0 0 1 0-2l1 2-1 1h1Zm13-5v-2a3 3 0 0 1 0 2Zm2 4a1 1 0 0 1 1-1l-1 1Zm2 2-1-2v2h1Zm3-13a2 2 0 0 1 0 1h1l-1 2-1 1a2.997 2.997 0 0 1 0-1l1-1v-2Zm-2 3 1-1v-1l1 1a2.999 2.999 0 0 1-1 1h-1Zm3 5h-1v1a2.999 2.999 0 0 1-1-1v-1l1 1v-2l1 2Zm0-5-1 1v-1a3 3 0 0 1 1-1h1l-1 1Zm0 8a2.997 2.997 0 0 1 0-1v1Zm4 8-2 1v1-4l1 2h1Zm-1-4a7.002 7.002 0 0 1 0 2h-1l1-1-1-1v-1l1 1v-1l1-1-1 2Zm2 2h-1v1a2 2 0 0 1 0-1v-1l1-1a3 3 0 0 1 0 2Zm0-12v3c.044.666.044 1.334 0 2a7.996 7.996 0 0 1 0 2l-1 1-1-2v1s-1 1-1-1l1 1v-2l-1 1v-3l-1-1h1v-1l1-1-1-1 1-1v-1l1-1v-2l1 1-1 1c-.056.331-.056.67 0 1l1 1h-1v2-1l2 1h-1Zm19-8v1a1 1 0 0 1 0-1Zm0 8c.019.333.019.667 0 1h-1l1-1Zm0-5c.094.998.094 2.002 0 3v-3a3.999 3.999 0 0 1 0-2v2Zm2 2a2.997 2.997 0 0 1-1 0v1a6.006 6.006 0 0 1 0-1c0-1 0-1 0 0h1Zm0-3c-.307.36-.641.694-1 1 0 1 0 0 0 0l1-1Zm0 2v1a4.003 4.003 0 0 1 0-1c0 1 0 0 0 0v-1a5.003 5.003 0 0 1 0-1v1c0-1 0 1 0 0 .019.333.019.667 0 1Zm2 3c.019.333.019.667 0 1v-1Zm1-6a16.002 16.002 0 0 1 0 4v-3a3.999 3.999 0 0 1 0-2v1Zm1 3v1a6 6 0 0 1 0-2v1Zm0-3c.019.333.019.667 0 1v-1Zm1 2v1a2.997 2.997 0 0 1 0-1v-1a5.003 5.003 0 0 1 0-1v1c0-1 0 1 0 0 .019.333.019.667 0 1Zm2-7h-1l1 2-1-1 1-1Zm0 3a8 8 0 0 1 0 3l-1-1v1-2a2 2 0 0 1 0 1v-2l1 1v-1c.019.333.019.667 0 1v-1Zm0-1v2a6 6 0 0 1 0-2Zm4 2v-2a6 6 0 0 1 0 2Zm2-8v1-2 1Zm27 6c0-1 0-1 0 0Zm-1 7v1a8.78 8.78 0 0 1 0 1v-2Zm1-5c.094.998.094 2.002 0 3v-3a3.984 3.984 0 0 1 0-1v1Zm1 2c.056.331.056.67 0 1v1a5.994 5.994 0 0 1 0-2Zm0-2a8.78 8.78 0 0 1 0 1v-1Zm1 2v1a2.997 2.997 0 0 1 0-1v-1a5.063 5.063 0 0 1 0-1v1a8.78 8.78 0 0 1 0 1Zm1 11a3.984 3.984 0 0 1 0-1v2-1Zm1-9v1a8.78 8.78 0 0 1 0 1v-2Zm1-5a15.936 15.936 0 0 1-1 3v-3c.271-.39.61-.729 1-1v1Zm1 2c.056.331.056.67 0 1l-1 1a5.994 5.994 0 0 1 0-2h1Zm11 2v1c0-2 1-2 1-1h-1Zm17 5c-1 1-1-2-1-3l1 3Zm4-7c0-1 1 0 0 0l1 1c0 2-1 0-1-1Zm2-2s0 3-1 2a8.007 8.007 0 0 1 0-3l1 1Zm2 3c-1 1-1 1-1-1l1-1c.056.666.056 1.334 0 2Zm1-2c0 2-1 3-1 1v-1l1-2a5.994 5.994 0 0 1 0 2Zm9 3a3.997 3.997 0 0 1-1-3l1-1v4Zm1 5v-1l1-1-1 2Zm1-5h-1l1-1-1-1 1 2Zm5 5a9.81 9.81 0 0 1 0 1h-1l1-1Zm0-5c.094.998.094 2.002 0 3v-3a3.984 3.984 0 0 1 0-1c0-1 0 0 0 0v1Zm4 4a8.78 8.78 0 0 1 0 1v-1Zm1 3a8.992 8.992 0 0 1 0-3v3Zm1-6v1a5.963 5.963 0 0 1 0-1c0-1 0-1 0 0Zm5 31v-1l1 2-1-1Zm1-2v-1a2.997 2.997 0 0 1 0-1v2Zm24 3v1h1v-1a6.994 6.994 0 0 1 0 3h-1l1-1-1-1v-1Zm3 2-1 1v1a1.993 1.993 0 0 1 0-1v-3c.579.513.937 1.23 1 2Zm40-28c0-1 0-1 0 0Zm-1 7v1a8.78 8.78 0 0 1 0 1v-2Zm1-5c.094.998.094 2.002 0 3v-3a3.984 3.984 0 0 1 0-1v1Zm1 2c.056.331.056.669 0 1v1a5.994 5.994 0 0 1 0-2Zm0-2a8.78 8.78 0 0 1 0 1v-1Zm1 2v1a2.997 2.997 0 0 1 0-1v-1a5.063 5.063 0 0 1 0-1 9.037 9.037 0 0 1 0 2Zm2 2v1a8.78 8.78 0 0 1 0 1v-2Zm1-5a15.936 15.936 0 0 1-1 3v-3c.271-.39.61-.729 1-1v1Zm1 2c.056.331.056.669 0 1l-1 1a5.994 5.994 0 0 1 0-2h1Zm0-3a6.98 6.98 0 0 1 0 2l-1-1h1v-1Zm0 3v1a2.997 2.997 0 0 1 0-1v-1a4.989 4.989 0 0 1 0-2v2l1-1a9.01 9.01 0 0 1-1 2Zm2-7v1-2 1Zm0 7v2l-1-1 1-2v1Zm1-4a7.986 7.986 0 0 1-1 3v-3c.021.333.021.667 0 1l1-1Zm0-1v1a5.963 5.963 0 0 1 0-1Zm3 1 1-1c.028.333.028.667 0 1h-1Zm2-7c-1 0 0 1 0 0Zm3 8a8.992 8.992 0 0 1 0-3v3Zm3-8v-1a6.98 6.98 0 0 1 0 2v-1Zm1 4v-1a.998.998 0 0 1 0 1Zm1-1v-1c.085.328.085.672 0 1Zm6-4v1a.997.997 0 0 1 0-1Zm0 8v1a8.78 8.78 0 0 1 0 1v-2Zm0-5c.094.998.094 2.002 0 3v-3a3.984 3.984 0 0 1 0-1c0-1 0 0 0 0v1Zm2 2a3.003 3.003 0 0 1-1 1 5.963 5.963 0 0 1 0-1h1Zm0-3c-.307.36-.641.693-1 1 0 1 0 1 0 0l1-1Zm0 3v-2a5.063 5.063 0 0 1 0-1v1c0-1 0 1 0 0a9.037 9.037 0 0 1 0 2Zm2 2a8.78 8.78 0 0 1 0 1v-1Zm2-3v1a5.963 5.963 0 0 1 0-1Zm34-13a.998.998 0 0 1 0 1v-1Zm1-2v1a2.997 2.997 0 0 1 0-1Zm0 1c0 1 0 1 0 0Zm0 5a1.993 1.993 0 0 1 0-1v1Zm1-3c-.2.444-.556.8-1 1v-1h1Zm0-1h1c-.444-.2-.8-.556-1-1h1a.998.998 0 0 1 0 1c0-1 0 0 0 0 .085.328.085.672 0 1v-1c-.444-.2-.8-.556-1-1v1Zm0-2a4.008 4.008 0 0 1 0 2 4.989 4.989 0 0 1 0-2Zm5 11c0-1 0-1 0 0Zm0 7v1a7.999 7.999 0 0 1-1 1l1-2Zm0-5c.088.998.088 2.002 0 3v-3a3.984 3.984 0 0 1 0-1v1Zm1 2c.056.331.056.669 0 1v1a5.994 5.994 0 0 1 0-2Zm0-2a8.78 8.78 0 0 1 0 1v-1Zm3 4v1a9.81 9.81 0 0 1 0 1v-2Zm1-5c.094.998.094 2.002 0 3v-3a3.984 3.984 0 0 1 0-1v1Zm1 2c.056.331.056.669 0 1v1a5.994 5.994 0 0 1 0-2Zm0-2a8.78 8.78 0 0 1 0 1v-2 1Zm1 2-1 1a3.984 3.984 0 0 1 0-1h1v-1a5.063 5.063 0 0 1 0-1 9.037 9.037 0 0 1 0 2Zm668 1v1l-1 1v-1l1-1Zm-2 1v-2a5.063 5.063 0 0 1 0-1v1c0 1 1-1 0 0a9.037 9.037 0 0 1 0 2Zm-1-2 1-1a8.78 8.78 0 0 1 0 1h-1Zm0 2c0-1 0-1 0 0v1a5.963 5.963 0 0 1 0-1Zm-1-2a3.984 3.984 0 0 1 0-1h1l-1 1c.094.998.094 2.002 0 3v-3Zm0 6v-1c.024.333.024.667 0 1Zm-3-5v-1c.024.333.024.667 0 1 0 1 0 1 0 0Zm0 2c.056.33.056.669 0 1a5.963 5.963 0 0 1 0-1Zm-1-2a3.984 3.984 0 0 1 0-1v1c.094.998.094 2.002 0 3v-3Zm-1 6c.024.333.024.667 0 1v-1Zm-4-18c-.056.33-.056.669 0 1v-1c.085.328.085.672 0 1a1.993 1.993 0 0 1 0-1Zm0-1c.033.332.033.668 0 1a3.984 3.984 0 0 1 0-1Zm-1 0a.999.999 0 0 1 1 1l-1-1Zm-1 1v-1a1.993 1.993 0 0 0 0 1Zm-35 13h1v1l-1 1a5.994 5.994 0 0 1 0-2Zm-1 5v-1a8.78 8.78 0 0 1 0 1Zm-2-4v-1a5.063 5.063 0 0 1 0-1v1c0-1 0 1 0 0a8.78 8.78 0 0 1 0 1l-1 1c.271-.39.61-.729 1-1Zm-1-1v-1a8.78 8.78 0 0 1 0 1Zm0 1v1c0-1 0 1 0 0v1a5.994 5.994 0 0 1 0-2Zm-1-1a4.008 4.008 0 0 1 0-2v1a16.03 16.03 0 0 1 0 4v-3Zm-1 6v-1a8.78 8.78 0 0 1 0 1Zm-6-6 1-1a2.005 2.005 0 0 1-1 2v-1Zm-1 1h1a.998.998 0 0 1-1 1v-1Zm0-4v-1a6.98 6.98 0 0 1 0 2v-1Zm-3 5v3a9.99 9.99 0 0 1 0-3Zm-3-6h1l-1 1v1-2Zm-2 8c.028.333.028.667 0 1v-1c0-1 0-1 0 0Zm-4 0h1l-1 1a5.963 5.963 0 0 1 0-1Zm0-3v2l-1-1 1-1Zm0 4v-1a9.037 9.037 0 0 1 0 2v-1a8.007 8.007 0 0 1 0 3v-1h-1l1-1h-1l1-1Zm-1 3v2-2Zm-1 0v1-2a5.063 5.063 0 0 1 0-1v1c0-1 0 1 0 0a9.037 9.037 0 0 1 0 2c0 1 0 0 0 0a2.997 2.997 0 0 1 0-1Zm-1-1v-1a8.78 8.78 0 0 1 0 1Zm0 2c0-1 0-1 0 0v1a5.963 5.963 0 0 1 0-1Zm-1-2a3.984 3.984 0 0 1 0-1c0-1 0-1 0 0v1c.094.998.094 2.002 0 3v-3Zm-1 6 1-1a9.045 9.045 0 0 1-1 1Zm-2-3v-2a4.99 4.99 0 0 1 1-1l-1 1h1a9.013 9.013 0 0 1-1 2c0 1 0 0 0 0Zm0-2v-1a8.78 8.78 0 0 1 0 1Zm-1 2h1l-1 1a5.963 5.963 0 0 1 0-1Zm-1-5 1 1a1 1 0 0 1-1-1Zm0 3c.271-.39.61-.729 1-1v1a15.94 15.94 0 0 1-1 3v-3Zm0 6a9.81 9.81 0 0 1 0 1v-1Zm-43 20 1 2h1l-1 1-1 2v-5Zm2 0 1-1v-1a2.997 2.997 0 0 1 0 2v2a2.005 2.005 0 0 1-1-2Zm-1-3v1h1a7.01 7.01 0 0 1-1 2c0 1 0 1 0 0v-2h-1v-1h1Zm-25-5 1 2v1l-1-1a2.997 2.997 0 0 1 0-2Zm-6-27 1-2v2h-1Zm0 0h1c.056.331.056.669 0 1h-1v1a5.994 5.994 0 0 1 0-2Zm0 3v3a8.992 8.992 0 0 1 0-3Zm-1 0v1a9.81 9.81 0 0 1 0 1v-2Zm-4-4a3.984 3.984 0 0 1 0-1v1c.094.998.094 2.002 0 3v-3Zm-1 7v-1a8.78 8.78 0 0 1 0 1Zm-6-10-1 3a4.008 4.008 0 0 1 0-2l1-1Zm-10 0v-1a5.994 5.994 0 0 1 0 2l-1 1 1-2Zm-1 2v-2c.125.996.125 2.004 0 3l-1-1h1Zm-2-3v1h1l-1 2a8.007 8.007 0 0 1 0-3Zm-1 3v1l-1-2 1 1Zm-5 4v2-3 1Zm-9 11v2h-1l1-2Zm-19-15c0-1 0-1 0 0v1a5.963 5.963 0 0 1 0-1Zm-1-2a3.984 3.984 0 0 1 0-1v1c.094.998.094 2.002 0 3v-3Zm-1 6 1-1c-.309.357-.643.69-1 1Zm-1 7c1-1 1 1 1 2l-1-1a2.997 2.997 0 0 1 0-1Zm-1-10v-2a4.99 4.99 0 0 1 1-1l-1 1h1a9.013 9.013 0 0 1-1 2c0 1 0 0 0 0Zm0-2v-1a8.78 8.78 0 0 1 0 1Zm-1 2h1l-1 1a5.963 5.963 0 0 1 0-1Zm-1-5 1 1a1 1 0 0 1-1-1Zm0 3c.271-.39.61-.729 1-1v1a16.954 16.954 0 0 1-1 3v-3Zm0 5a9.037 9.037 0 0 1 0 2v-2Zm-26-14-1 1c0-2 0-1 1-1Zm-2 7a5.996 5.996 0 0 1-1 1l1-1Zm-4 0v1a5.963 5.963 0 0 1 0-1Zm-1-3v2-2Zm0 4a8.78 8.78 0 0 1 0 1l1-1a7.986 7.986 0 0 1-1 3v-3Zm0 3v3l-1-1 1-2Zm-2 1v-2a5.063 5.063 0 0 1 0-1v1h1a9.013 9.013 0 0 1-1 2v1a3.984 3.984 0 0 1 0-1Zm-1-2 1-1a8.78 8.78 0 0 1 0 1h-1Zm0 2h1c.056.331.056.669 0 1h-1a5.963 5.963 0 0 1 0-1Zm-1-2c.271-.39.61-.729 1-1v1a16.954 16.954 0 0 1-1 3v-3Zm0 6a8.78 8.78 0 0 1 0 1v-1Zm-2-3v-1a4.989 4.989 0 0 1 0-2v2-1a9.037 9.037 0 0 1 0 2l-1 1c.271-.39.61-.729 1-1Zm-1-2v-1a9.037 9.037 0 0 1 0 2v-1Zm0 2c.056.331.056.669 0 1v1a5.994 5.994 0 0 1 0-2Zm-1-5v1a.998.998 0 0 1 0-1Zm0 4v-1a3.984 3.984 0 0 1 0-1v1c.094.998.094 2.002 0 3v-2Zm-1 0 1 1c-1 1-1 0-1-1Zm0 6v-1c.024.333.024.667 0 1Zm-23 3v2a2.997 2.997 0 0 1 0-2Zm3 5a6.994 6.994 0 0 1 0 3l-1-1h1l-1-1-1-1h1v1h1v-1Zm1 3v1a1.993 1.993 0 0 1 0-1v-3c.579.513.937 1.23 1 2l-1 1Zm-3-11 1-2v-2l1-1 1-1a2.997 2.997 0 0 0 0 1v2h-1c-1 1 0 2 1 2v-1s1-1 1 1v1l-1-1 1 3c.044.666.044 1.334 0 2a7.968 7.968 0 0 1 0 2l-1 1-1-2v1l-2-1h1v-2l-1-2h1l-1-1Zm-1-5-1 2a2.997 2.997 0 0 1 0-1l1-1Zm-2-2c.444.2.8.556 1 1v1l-1 1v2a2.997 2.997 0 0 1 0-1v-4Zm-1 4a.998.998 0 0 1 0-1h1c.056.331.056.669 0 1h-1Zm1 3h1v2c-1 1 0-1 0 0l-1 1a2.997 2.997 0 0 1 0-1l-1-1 1-1Zm-4 3 1 1h-1a.998.998 0 0 1 0-1Zm-2-4c.056.331.056.669 0 1v1h-1v-1l1-1Zm-14 4v2-1a2.997 2.997 0 0 1 0-1Zm0 5-1-1v-1l1 2Zm-25-16v3-3Zm-1 1v-1a5.063 5.063 0 0 1 0-1 9.037 9.037 0 0 1 0 2v1a3.984 3.984 0 0 1 0-1Zm-1-2c.024.333.024.667 0 1v-1Zm0 2c.056.331.056.669 0 1v1a5.994 5.994 0 0 1 0-2Zm-1-1v-1a3.984 3.984 0 0 1 0-1v1c.094.998.094 2.002 0 3v-2Zm-1 6v-1c.021.333.021.667 0 1Zm-3-5 1-1c.024.333.024.667 0 1h-1Zm0 1h1c.056.331.056.669 0 1h-1v1a5.994 5.994 0 0 1 0-2Zm-1-1v-1a3.984 3.984 0 0 1 0-1h1l-1 1c.088.998.088 2.002 0 3v-2Zm0 6v-1c.028.333.028.667 0 1Zm-6-19a.998.998 0 0 1 0 1V9Zm1 1h1a1.993 1.993 0 0 1 0-1 .998.998 0 0 1 0 1c.085.328.085.672 0 1a2.005 2.005 0 0 1-1-2v1Zm0-1c.033.332.033.667 0 1a4.008 4.008 0 0 1 0-2v1Zm-1 3 1-1c.085.328.085.672 0 1h-1Zm0 2a2.997 2.997 0 0 1 0-1v1Zm0-5V8a1.993 1.993 0 0 0 0 1Zm-1 1a.998.998 0 0 1 0 1v-1Zm-1-1c.085.328.085.672 0 1l1 1-1-2Zm-33 14c.056.331.056.669 0 1a5.963 5.963 0 0 1 0-1Zm-2 4a8.78 8.78 0 0 1 0 1v-1Zm-2-3v-2a5.063 5.063 0 0 1 0-1v1h1a9.013 9.013 0 0 1-1 2v1a3.984 3.984 0 0 1 0-1Zm-1-2 1-1a8.78 8.78 0 0 1 0 1h-1Zm0 2h1c.056.331.056.669 0 1h-1c-1 0 0 1 0 0a5.963 5.963 0 0 1 0-1Zm-1-2c.271-.39.61-.729 1-1v1a15.936 15.936 0 0 1-1 3v-3Zm0 6c.024.333.024.667 0 1v-1Zm-6-6c0-1 0 1 0 0 .085.328.085.672 0 1v-1Zm-1 2v-1a.998.998 0 0 1 0 1Zm-1-4v-1a6.98 6.98 0 0 1 0 2v-1Zm-2 1s0-2 1-1-1 2-1 1Zm-1 4v3a8.992 8.992 0 0 1 0-3Zm-2-6v2l-1-1 1-1Zm-2 7c.028.333.028.667 0 1v-1Zm-4 0v1a5.963 5.963 0 0 1 0-1Zm-1-3v2-2Zm0 4a8.78 8.78 0 0 1 0 1h1v-1a7.986 7.986 0 0 1-1 3v-3Zm0 3v3-3Zm-2 1h1v-1a4.989 4.989 0 0 1 0-2v2-1a9.037 9.037 0 0 1 0 2l-1 1a3.984 3.984 0 0 1 0-1Zm0-2v-1a8.78 8.78 0 0 1 0 1c0 1 0 1 0 0Zm0 2c.056.331.056.669 0 1a5.963 5.963 0 0 1 0-1Zm-1-1v-1a3.984 3.984 0 0 1 0-1v1a15.936 15.936 0 0 1-1 3l1-2Zm-1 6v-1a8.78 8.78 0 0 1 0 1Zm-2-4v-1a5.063 5.063 0 0 1 0-1 9.037 9.037 0 0 1 0 2v1a3.984 3.984 0 0 1 0-1Zm-1-1v-1a8.78 8.78 0 0 1 0 1Zm0 1c.056.331.056.669 0 1v1a5.994 5.994 0 0 1 0-2Zm-1-4c0-1 0-1 0 0Zm0 3v-1a3.984 3.984 0 0 1 0-1v1c.094.998.094 2.002 0 3v-2Zm-1 6 1-2-1 1c.021.333.021.667 0 1Zm-42 19v2h1l-1 1v-3Zm2 1v-3c.579.513.937 1.23 1 2l-1 1v1a1.993 1.993 0 0 1 0-1Zm-2-3 1 1v-1a6.994 6.994 0 0 1 0 3l-1-1h1l-1-1v-1Zm-24-5v2-1a2.997 2.997 0 0 1 0-1Zm0 5-1-1v-1l1 2Zm-6-32c0-1 0-1 0 0v1a5.963 5.963 0 0 1 0-1Zm-1 3h1l-1 3a8.992 8.992 0 0 1 0-3Zm0-4v1l-1-1h1Zm0 4h-1a8.78 8.78 0 0 1 0 1l1-1Zm-5-4c.271-.39.61-.729 1-1 0-1 0 0 0 0v1a15.936 15.936 0 0 1-1 3v-3Zm0 6v-1a9.81 9.81 0 0 1 0 1Zm-5-6h-1l1-1-1-1 1 2Zm-2-4v4a4.002 4.002 0 0 1 0-3v-1Zm-9 1v-2a5.994 5.994 0 0 1 0 2c0 2-1 3-1 1l1-1Zm-2 1 1-1c.056.666.056 1.334 0 2 0 1-1 1-1-1Zm-2-3 1 1s0 3-1 2a8.007 8.007 0 0 1 0-3Zm-1 3 1 1c0 2-1 0-1-1Zm-13 10c-1 1-1 0-1-1l1 1Zm-7-8c-1 0-1 3-1 1l1-1Zm-12-2c.056.331.056.669 0 1v1a5.994 5.994 0 0 1 0-2Zm-1-1v-1a3.984 3.984 0 0 1 0-1v1a15.936 15.936 0 0 1-1 3l1-2Zm-1 6v-1a8.78 8.78 0 0 1 0 1Zm-1 6v3a1.993 1.993 0 0 0 0-1 2.997 2.997 0 0 1 0-2Zm-1-10v-1a5.063 5.063 0 0 1 0-1 9.037 9.037 0 0 1 0 2v1a3.984 3.984 0 0 1 0-1Zm-1-1v-1a8.78 8.78 0 0 1 0 1Zm0 1c.056.331.056.669 0 1v1a5.994 5.994 0 0 1 0-2Zm-1-4c0-1 0-1 0 0Zm0 3v-1a3.984 3.984 0 0 1 0-1v1c.094.998.094 2.002 0 3v-2Zm0 4-1 1a8.78 8.78 0 0 1 0 1l1-2ZM407 9v2-2Zm-2 7a6.98 6.98 0 0 1 0 2v-2Zm-4 0h1l-1 2a5.994 5.994 0 0 1 0-2Zm0-2v2l-1-1 1-1Zm0 3a9.037 9.037 0 0 1 0 2v-1a7.968 7.968 0 0 1 0 2v-1l-1 1 1-2c.085.328.085.672 0 1l-1-1 1-1Zm-2 4v-1a5.063 5.063 0 0 1 0-1v1c0-1 0 1 0 0a8.78 8.78 0 0 1 0 1v1a3.984 3.984 0 0 1 0-1Zm-1-1v-1a8.78 8.78 0 0 1 0 1Zm0 1v2a5.994 5.994 0 0 1 0-2Zm-1-1a4.008 4.008 0 0 1 0-2v1a16.03 16.03 0 0 1 0 4v-3Zm-1 6 1-1h-1a8.78 8.78 0 0 1 0 1Zm-2-4v-1a5.063 5.063 0 0 1 0-1v1h1c-.307.36-.641.693-1 1v1a3.984 3.984 0 0 1 0-1Zm-1-1 1-1c.024.333.024.667 0 1h-1Zm0 2h1c0-1 1 1 0 0h-1v1a5.963 5.963 0 0 1 0-1Zm-1-5v1a.998.998 0 0 1 0-1Zm0 3a3.994 3.994 0 0 1 1-2v1a16 16 0 0 1-1 4v-3Zm0 6v-1c.024.333.024.667 0 1Zm-23 4v1a2.997 2.997 0 0 1 0-1Zm0-1c0-1 1 0 0 0Zm2 5h1v1a7.008 7.008 0 0 1-1 2c0 1 0 0 0 0v-2h-1v-1h1v1h1l-1-1Zm2 3c-1 1 0 2-1 1a1.993 1.993 0 0 1 0-1l1-1v-1a2.997 2.997 0 0 1 0 2Zm-3 0 1 2h1l-2 1v1-4Zm0-11 1-1v-2c-1 0 0-1 0 0v-1l1-1v-2l1 1-1 1a2.997 2.997 0 0 0 0 1l1 1-1 1v1l1-1 1 1h-1v3c.044.666.044 1.334 0 2a7.968 7.968 0 0 1 0 2l-1 1-1-2v1s-1 1-1-1l1 1v-2l-1 1v-3l-1-1h1v-1Zm-1-4-1 1-1 1v-1a3.004 3.004 0 0 1 1-1h1Zm-2-2c.085.328.085.672 0 1h1l-1 2-1 1a2.997 2.997 0 0 1 0-1l1-1v-2Zm-1 3v-2l1 1a3.003 3.003 0 0 1-1 1c0 1 0 1 0 0Zm0 4 1 1v-2l1 2h-1v1a3.003 3.003 0 0 1-1-1v-1Zm-3 3h1l-1 1a.997.997 0 0 1 0-1Zm-2-5a2.997 2.997 0 0 1 0 2h-1l1-2Zm-15 4 1 2v1l-1-1a2.997 2.997 0 0 1 0-2Zm0 5v-1h-1l1 1Z"
    fill="#EBEBEB" />
  <path fill-rule="evenodd" clip-rule="evenodd"
    d="M699 24v-2a1.993 1.993 0 0 0 0-1l-1 1 1 2Zm203-2 1-1c-.271.39-.61.729-1 1l1 1 1 1h1v-3h-1a5.992 5.992 0 0 1 1-1 2 2 0 0 0-1 0c-.39.271-.729.61-1 1 0-1 0-1 0 0a2.997 2.997 0 0 0-1 0v1Zm-73 0 1-2v-3a2.997 2.997 0 0 1 0-1v-1a.998.998 0 0 1-1 1v1l-1-2a11 11 0 0 0 1 6v1ZM977 7h-1l1 1a1.993 1.993 0 0 0 0-1Zm-71 17v1c.444-.2.8-.556 1-1h-1a2.997 2.997 0 0 0 0-1l-1-3v2l1 2Zm20-6a.998.998 0 0 0 0-1h-1v1h1Zm-17 13 1-1a2.997 2.997 0 0 1 0-1 6.953 6.953 0 0 0 0-1l-1 2v1Zm3-6a1.993 1.993 0 0 0 0 1v-1Zm3-4a3.984 3.984 0 0 0 0 1 .998.998 0 0 1 0-1Zm-322-5a.998.998 0 0 0 0-1h-1v1h1Zm11 5 1-1-1-1v2Zm-103 0v1a2.997 2.997 0 0 0 0-1Zm94-5h-1a7.944 7.944 0 0 0 0 1l1-1Zm57 3v1a.998.998 0 0 0 0-1Zm-7-13V5a.998.998 0 0 1 0 1ZM438 16a6.953 6.953 0 0 0 0-1v1Zm58 4v-5a2.997 2.997 0 0 1 0-1 .998.998 0 0 1 0 1l-1 1v-2a11.003 11.003 0 0 0 1 5v1Zm-100-1 1-1v1a2.997 2.997 0 0 1 0-1 5.963 5.963 0 0 0 0-1l-1 2Zm99-8h1v-1h-1a1.993 1.993 0 0 0 0 1ZM365 22l1-2h-1v2Zm211 6a6.953 6.953 0 0 0 0-1v1Zm-4-6v1h1a1.993 1.993 0 0 0 0-1 3.003 3.003 0 0 0-1-1v1Zm-3-2v1l1 1h1v1-4c0 1 0 1 0 0a5.963 5.963 0 0 1 0-1 4 4 0 0 0-2 1h1l-1 1Z"
    fill="#EBEBEB" />
  <path fill-rule="evenodd" clip-rule="evenodd"
    d="M568 21a.998.998 0 0 0 1 0 1.993 1.993 0 0 0 0-1h-1v1Zm-308-5a.997.997 0 0 0 0-1h-1v1h1Zm2 0h-1v1l1-1Zm-23 6v1h1a1.993 1.993 0 0 0 0-1 3.004 3.004 0 0 0-1-1v-2l-1 2 1 1Zm4 6a6.953 6.953 0 0 0 0-1v1Zm2-4a1.993 1.993 0 0 0 0 1c.2-.444.556-.8 1-1h-1Zm73-5v1a.997.997 0 0 0 0-1Zm-47 1h1l-1-1v1Zm41-14a7.944 7.944 0 0 0 0-1h-1a1 1 0 0 1 1 1ZM105 16a6.953 6.953 0 0 0 0-1v1Zm63 5a.998.998 0 0 0 0 1 .997.997 0 0 0 0-1Zm-5-1v-5a2.997 2.997 0 0 1 0-1h-1a.998.998 0 0 1 0 1v1-2a10.995 10.995 0 0 0 0 5l1 1ZM63 19h1a2.997 2.997 0 0 1 0-1 7.012 7.012 0 0 0 0-1c-1-1-1 1-1 2Zm-31 3v-2a2 2 0 0 0 1 0h-1v2Zm130-11h1a2.997 2.997 0 0 0 0-1 3.001 3.001 0 0 0-1 0 1.993 1.993 0 0 0 0 1ZM235 20h1v1l1 1 1 1v-4c0 1 0 1 0 0a5.963 5.963 0 0 1 0-1 2 2 0 0 0-1 0c-.39.271-.729.61-1 1l-1 1Z"
    fill="#EBEBEB" />
  <path fill-rule="evenodd" clip-rule="evenodd" d="M236 20v-1l-1 1h1Zm-1 1a.998.998 0 0 0 1 0c-.2-.444-.556-.8-1-1v1Z"
    fill="#EBEBEB" />
</svg>
