<svg preserveAspectRatio="none" xmlns="http://www.w3.org/2000/svg" viewBox="0 0 1000 100">
  <g fill="#000">
    <path
      d="M167 61zM98 62zM98 60a1 1 0 000 1 1 1 0 010 1 5 5 0 001-1l-1-1zM171 71a3 3 0 000 1v-1 1a1 1 0 000-1zM229 64l-1 1v1a7 7 0 000 1l1-2v-1zM270 62v1a6 6 0 000 1v-1-1z"
      fill-rule="evenodd" />
    <path
      d="M9 61l2 1a6 6 0 010-2v2a3 3 0 010 1l2 1v-1 2a21 21 0 011-2v-1 0h1v-2 1a4 4 0 010-2v1a4 4 0 011-1v-1-1 1a6 6 0 010 1 6 6 0 010 1 2 2 0 011 1v-1c0-1 0 1 0 0a9 9 0 010-2h0v3a3 3 0 011 2 7 7 0 011 1v-1l1 2 1-1c1 0 0 1 0 0v1h2v2a15 15 0 010 1c0 2 1-1 1 1v1c0 2-1-1-1-1a1 1 0 000 1 1 1 0 010 1h-1l1-1h-1v1a4 4 0 010-1v-1l-1-1v0l-1-1v4l1 1v3h1a3 3 0 010 1v-2h2a1 1 0 010-1c0-1 0 0 0 0v1a3 3 0 010-1v1s0-1 0 0a3 3 0 010 1v-1a2 2 0 010 1l1-2v1h1a4 4 0 010-2v1a15 15 0 002-1l2-4v-1-1-1c0-1 0 0 0 0v2l1-1a2 2 0 010 1l-1 1v-1a2 2 0 000 1c1 1 1 2 2 1l4-5h4l3-2a5 5 0 004-2c1-1 0-4 2-4h5l4 1h1l2 3v1a17 17 0 011-4v4c0 1 0 0 0 0v-2 1a5 5 0 010 1 6 6 0 010-2h1a4 4 0 010-1v-2 1a6 6 0 010 1 25 25 0 010 5v1a2 2 0 002 1v-1l1-2v1l1 2v-2l1 1h1v1a5 5 0 010 1h2a10 10 0 011-2c0-1 0 0 0 0v-2-1h1v2l2 1a2 2 0 010 1 3 3 0 010 1 5 5 0 010-2c1-1 1 1 1 2v-1 1h1a2 2 0 000-1h0v1-1a3 3 0 010-1 3 3 0 000-1 1 1 0 010-1h1v-1 0c0-1 1-2 1 0s-1 0-1 1c0 2 1 1 1 1a7 7 0 010 1h1v-1-1l1 2v-1a3 3 0 010 1v-1-1c0-1 0 0 0 0v-1l1 1v-2 2a4 4 0 000-1v-1l1 1v0a11 11 0 010 2v-2 1s0-1 0 0a3 3 0 011 0v-1-1l1-1v-1c0-1 0 0 0 0v0l1 1v1l1-5v1c0 1 0 0 0 0v1l1-1v-1-1 4l1-4v0l1-1v-2 1a5 5 0 010 1 6 6 0 010-2 4 4 0 011-1v-2 1a6 6 0 010 1 25 25 0 011 5v2h1v0a4 4 0 010 1 7 7 0 010 1 17 17 0 011-2v0l-1-1a1 1 0 011-1v-1h1v3l1-2v1h2v3c1 2 1-1 1 1a13 13 0 001-1 4 4 0 010-1v1l2-4 2-4c2-2 3-4 4-3a4 4 0 013 2l2 1 2-3c1-1 1-4 3-5l3-2a3 3 0 011-2v2a4 4 0 011 0v-1-1-1l1 2v-1l1-2v3l1-2v2l1-1v2a6 6 0 001-2l1-2 1 2v0a5 5 0 012-2l3-1a11 11 0 010-2 15 15 0 010-2 8 8 0 010-2l1-1v1h1s1-1 1 1l-1-1v2l1-1v1a8 8 0 010 2l1-1v-1-2a3 3 0 010 2 11 11 0 002-2c0-3 2-6 3-4l4 8 3 9c1-1 2 2 3 4v-1a8 8 0 010 2l1 1v-2a6 6 0 010 3l1 1v-3-1c1 0 1 2 2 1l-1-2c0-1 0 1 0 0l1-2 1-3v2l-1 1 1 1a1 1 0 010 1c-1 1-1-3-1-2a8 8 0 000 2 5 5 0 000 1v-1c1 1 1 5 2 3l-1-1a3 3 0 011-2 5 5 0 011-2v-1a7 7 0 010 3c0 1-1-1-1 1a5 5 0 000 1h1a8 8 0 011 3 4 4 0 010 1l-1 2v2l1 4v-2l1 2v-2 1a3 3 0 011-1v-1-1h1v1l1-1v1l1 1a9 9 0 010 2 6 6 0 010 1 5 5 0 01-1 1l1-1h-1c0 1 0 1 0 0a1 1 0 010-1l-1 1v-1 3l1 1c0-1 0-1 0 0l1-2a2 2 0 010-1h1v1a14 14 0 011-3l-1 2 1 1v-2 1a9 9 0 010-1l1-2a11 11 0 010 1v-2 1a6 6 0 010 1 3 3 0 010 1 3 3 0 001-2l-1-2a14 14 0 011 2 4 4 0 010 1l1 1v-1a3 3 0 010-1s0 1 0 0v-1a6 6 0 010 2 4 4 0 010 1v1c1 0 0-6 1-5v8-1c0-1 0-2 1-1a5 5 0 010 1v-1a7 7 0 010-3h1c0-1 0 0 0 0v-1 5l1-2v2a3 3 0 012 3 7 7 0 013-1c4-1 3 0 4 2a5 5 0 000 1 13 13 0 011 2 2 2 0 001-1s0 1 0 0v-2-3c1-1 1 3 1 1l1-2v3l-1 2c1 1 1-2 2-1a5 5 0 010 2h-1a3 3 0 000 1c1 1 1-1 1 1a1 1 0 010 1l-1-1c0 3 2 1 2 4a9 9 0 01-1 3l-1 1v-2-2-3l-1 2v2a43 43 0 011 3v1l1 1v-1 1l2-1a4 4 0 00-1-1v-3 1a3 3 0 011-3v1l1-1v1s1-1 1 1-2-1-1 2a6 6 0 000 1 9 9 0 001-2 10 10 0 010-3 7 7 0 011 2v-1a4 4 0 000-1v-1l-1-1-1 1v-5 4c-1 2-1 2-2 0v-1c0-5 2-5 3-4 0 0 0-1 0 0v1c0 2 1 0 1 0l1-1 1-1 1-1v-1 2l1-2v3c0 1 0 0 0 0l1-5 1-3a4 4 0 010 1c1-3 0-4 2-5a22 22 0 002-2l4 1c1-1 2-1 2 1s0 9 2 10 1 2 3 1l3-3c2-3 1-4 3-4s3 1 4 4v-1a4 4 0 010 1s0-1 0 0v2a9 9 0 011-1s0-1 0 0l-1 1a7 7 0 001 1v1a11 11 0 010-2v2h1v-1-1-2 1a5 5 0 010 1 6 6 0 011-3v1a4 4 0 010-1v-1-1 1a7 7 0 010 1 25 25 0 010 5v1h2v-1l1-1 1 2a7 7 0 011-1v1h1l5-6 4 6 5 6 4 3h1v-1c0-1 0 1 0 0a7 7 0 010-1v2h2v-1 1a9 9 0 000-2 3 3 0 010-1l1-1v-1-1s0-1 0 0v3l1-3c0-1 0-2 0 0v2a6 6 0 010 1l1 1v-1 0l1-1-1-1c1-2 1 1 1 2v-1a2 2 0 010 1v-1h1c0-3-1 0-1-1v-1l1-1c1 0 0 0 0 0v1a1 1 0 010 1 1 1 0 011 0v-1l-1-1a1 1 0 011-1v2c0-1 0 0 0 0h1l1-1v-1a4 4 0 000 1c0 1 0 0 0 0v-3 3a1 1 0 001-1v-1 1c0 1 0 1 0 0l1-5v4l1-1c1 0 0-1 0 0v-2-1 1h1l-1 3v-1 1l1-4v-1 1a4 4 0 010 1 1 1 0 000 1l1-1v-2c0-1 0 0 0 0v-2c0-1 0 0 0 0a5 5 0 010 1 6 6 0 011-2v1a4 4 0 010-1v-1-2 1a6 6 0 010 2 25 25 0 010 5v1a3 3 0 011 2l-1-1v1a11 11 0 012-2v-1l1-1a3 3 0 011 1l1-1h2l1-1h1v-5c1-1 1 1 1 2l-1 1 1-1 1-1c1 0 0 0 0 0v-1c0-1 0 0 0 0v-1l1 2v-1l1-3-1 3 1 1c0 1 0 0 0 0l1-2v1l1 1-1 1h1a6 6 0 001-2l1-2 1 2h-1l1 1v-1h1s0-2 1-1v1l-1 3h1v1l-1 1 2-1 1-1v1a6 6 0 011 0 11 11 0 004 0 6 6 0 013 0 6 6 0 010-2l1-2a4 4 0 00-1-2v-1a6 6 0 010-2v-1l1 4v-1-1 1l1-1 1 2h1v1c1 0 0 0 0 0v-1 2l1-1 1 1v-1a12 12 0 000 2l1 1 1-1 2 6v1c1-1 1 0 1 1l-1-1 2 4v-3-2 3l1-2a7 7 0 010 3l-1 2v1a4 4 0 000 1 5 5 0 011-1v-1l1 1-1-5 1-1 1 1v-2c0-1 0 1 0 0v-2c1-2 1-5 2-3l-1 1 1 1-1 1 1 1a1 1 0 010 1c-1 1-1-3-1-2a8 8 0 000 2 5 5 0 000 1v-1c1 1 1 4 2 3l-1-2a3 3 0 010-1 5 5 0 012-2h1v-1a7 7 0 01-1 3s0-1 0 0a5 5 0 000 2l1-1a8 8 0 011 3 2 2 0 010 1h6l4-1h2V42v28c4-7 10-7 10-7l1 1a6 6 0 010-2l1 1v-1 2c0-1 0 0 0 0a3 3 0 010 1l1 1v-1l1 1v-1-1 2l1-2v1a3 3 0 010 1h-1 1v-2-1-2 1a3 3 0 010 1l1-1a4 4 0 010-1v-1-2l1 1a6 6 0 01-1 1v1a6 6 0 011 1l1-1h-1a9 9 0 011-1v-1a4 4 0 010 1v2a3 3 0 011 2 7 7 0 010 1v-1l1 1v2l1-1c0-1 0 0 0 0h1l1 1v2c0 1 0 0 0 0v-1l1 2v1a3 3 0 010-1v1c0 3 0-1-1 0a2 2 0 000 1v-1 1h-1a3 3 0 011 0l-1-1-1-1v-1 1l-1 2h1v3a2 2 0 010 1v1h1s0-1 0 0v-1a3 3 0 010 1v-1h1l1-1v0a1 1 0 010-1 1 1 0 010 1l1-1-1 1a3 3 0 010 2l1-1v-1a4 4 0 000 1l1-1a5 5 0 010-1v1a15 15 0 002-1c0-1 0 0 0 0l2-5v-1-1c0-1 0 0 0 0v1h1a2 2 0 010 1h-1c-1-1 1 0 0 0a2 2 0 000 1c2 1 1 2 3 1s2-5 3-5h4c2-1 2-3 4-3a5 5 0 003-2c1-1 0-3 2-3h5l4 1h1l2 3v1a2 2 0 000-1 16 16 0 011-3v3a6 6 0 010 1v-2c0-1 0 0 0 0a5 5 0 010 1 6 6 0 011-2v1a4 4 0 010-1v-1-1a6 6 0 010 2 25 25 0 010 5 2 2 0 002 1 1 1 0 010-1l1-1 1 2v-1h1v1h1c1 0 0 0 0 0a5 5 0 010 1 18 18 0 002 0 9 9 0 011-2s0 1 0 0v-1-2c0-1 0 0 0 0h1v3l2 1a2 2 0 010 1 5 5 0 010-2l1 2v-1 1h1v-1c0-1 0 0 0 0v1a3 3 0 010-2h1a1 1 0 01-1-1h1a2 2 0 010-1v-1 1c0-1 1-2 1 0v1 1a4 4 0 010 1 2 2 0 011 0v-1-1c0-2 1 0 1 1v-1-1-1h1v2a4 4 0 001-1l-1-1a1 1 0 010-1l1 1v1a11 11 0 010 1v-1 1l1-1-1 1a3 3 0 011 0v-1 1a1 1 0 010-1v-1-1h1a4 4 0 000 1c0 1 0 0 0 0v-3 3a1 1 0 001-1v-2 2l1-5v3l1-2v-1 3c0 1 0 0 0 0s0 1 0 0l1-4v1a4 4 0 010 1 1 1 0 000 1v-1-2l1-1v-2 1a5 5 0 010 1 6 6 0 011-2v-1-2 1a6 6 0 010 2 25 25 0 010 4v2a2 2 0 010 1h1v0a4 4 0 011 1 7 7 0 010 1 17 17 0 010-2v-1a1 1 0 010-1l1-1 1 2v-1h1v1h1c1 0 0-1 0 0v2l1 1v-2a15 15 0 010 2c0 1 1-1 1 1a13 13 0 001-2l1-3 2-4c1-2 3-4 5-4a4 4 0 013 2l3 2 1-4 3-4 4-3a3 3 0 010-1v1l1 1a4 4 0 010-1v-1l1 1v-2h-1 1v1l1-1 1-2-1 3 1 1 1-3-1 3 1-1v2h1c1 0-1 0 0 0a6 6 0 001-2v-2c1 0 2 0 1 1v1h1a5 5 0 011-2l3-1v-1 1l1-1a11 11 0 01-1-2 15 15 0 010-2 8 8 0 010-2l1-1 1 2v-1l2 1h-1v1a8 8 0 011 2v-1h1v-2a3 3 0 010 2 11 11 0 001-3c1-2 3-5 4-3l3 7c1 0 3 10 4 9l2 5 1-1a8 8 0 010 2s0-2 1-1a6 6 0 010 2v-1l1-1v-1l1 2-1-2 1-1v-2l1-3v5a1 1 0 010 1s0-4-1-3a8 8 0 000 2 5 5 0 000 1h1l1 2v-1a4 4 0 010-1 5 5 0 011-2h1v-1a7 7 0 01-1 3h-1a5 5 0 001 2l1-1a8 8 0 010 3 4 4 0 010 2l-1 2 1 2c0 1 0 4 1 3v-1-1l1 2a3 3 0 010-1 3 3 0 010-1h1v-1-1l1 2s0-1 0 0v-1l1 1v1a9 9 0 010 1v1c-1 0 0 0 0 0a9 9 0 010 1 5 5 0 010 1v-1a1 1 0 010-1l-1-1v3a1 1 0 010 1l1 1a1 1 0 010-1l1-2s0-1 0 0h1a13 13 0 010-3v3a15 15 0 010-1c0-1 0 0 0 0a3 3 0 010 1h1a7 7 0 010-1v-3a11 11 0 010 2v-1-1a6 6 0 010 2 3 3 0 010 1 1 1 0 011 0 3 3 0 000-3v-2a14 14 0 011 3v-1a4 4 0 010 1v0a3 3 0 010-1h1a6 6 0 010 1 4 4 0 010 1v1h-1l1-4v7a1 1 0 010-1l1-1a5 5 0 010 1v-1a7 7 0 010-2l1-1 1-1-1 4v1h1v-1 2a3 3 0 012 2 7 7 0 013-1c4-1 3 0 4 2a4 4 0 000 1 14 14 0 012 2h1l-1-2 1-1v-2l1 1v-2l1 2-1 2c0 2 1-1 1-1a5 5 0 010 2c0 1 0-1 0 0a3 3 0 000 2c0 1 1-1 1 1a1 1 0 010 1l-1-1 1 3a9 9 0 010 3l-1 1v-1l-1-2v-3 2h-1l1 1a40 40 0 011 4c0 2 0 2 1 1l1-1v-3l-1 2v-2a3 3 0 011-2l1 1v-1l1 1h1c0 3-2 0-2 2a6 6 0 000 1 9 9 0 002-2 10 10 0 010-3 7 7 0 010 3l1-1a4 4 0 000-1l-1 1v-3l-1-1v-2l-1-1v4c0 2-1 1-1 0l-1-1c0-5 2-5 3-5l1 1-1 1h1l1-1 2-1v-1-2l1 2v-2 3h1l1-4a2 2 0 010-1v-2a4 4 0 010 1l2-5a22 22 0 003-3l4 2c1 0 1-2 2 1s0 8 1 9 2 2 3 1l3-3c2-3 1-4 3-4s3 1 4 4l1-1a4 4 0 010 1h-1a3 3 0 000 1l1 2a9 9 0 010-1c0-1 0-1 0 0 0 0 0-1 0 0v2h1a11 11 0 010-1v1a3 3 0 000 1v-2-1-2l1 1c1 0 0 0 0 0a5 5 0 010 1 6 6 0 010-2l1-1v-2 1a6 6 0 010 2 25 25 0 010 4v2h2v-1l1-1c1 0 0 0 0 0v2h1a7 7 0 010-1h1v1a2 2 0 001-1l5-6 4 6 5 7 4 2h1a8 8 0 010-1v2h1v-1a2 2 0 011 1v-2 1a9 9 0 000-2 3 3 0 010-1h1v-2-1 0c0-1 1-2 1 0s0 0-1 1c0 2 1 1 1 1a7 7 0 010 1v1a2 2 0 010 1l1-2v-1-1l1 2s0-1 0 0v-1-1c0-1 0 0 0 0v-1l1 1v-2 0l1 1-1 1h1v-1a2 2 0 010 1 5 5 0 010-1v1s0-1 0 0h1v-1-1l1-1v1a4 4 0 00-1 0v1l1-1v-3 1l1 1v-4c1-1 1 0 1 1v1l1 1v-3-1 4l1-4v0l1-1v-2 1a5 5 0 010 1 6 6 0 010-2 4 4 0 011-1v-1-1 1a6 6 0 010 1 25 25 0 010 5v2a3 3 0 010 1s0-1 0 0a11 11 0 012-2v-1l1-1a3 3 0 010 1l2-1c0-1 0 0 0 0h2v-1h1l1-5v3l1-1v-1h1v-1h-1l1-1v2l1-1 1-2-1 3h1l1-2-1 2 1-1v2 1h1v-1a6 6 0 001-1l1-3v3l1-1h1v-1 4c0 1 0-1 0 0v2h2a2 2 0 010-1l1-1v1a6 6 0 011 0 11 11 0 004 0 6 6 0 012 0 6 6 0 011-2v-2a4 4 0 000-1l-1-2a6 6 0 011-2v3l1-1v-1 1l1-1 1 2v1h1c0 1 0-1 0 0v1l1-1v1l1-1a13 13 0 000 2v1h2l2 6 1 1-1-1 1 4v-2l1-3v3c1 0 0-2 1-1a7 7 0 01-1 3v2a1 1 0 010 1 4 4 0 010-1v-1h1s0 2 1 1l-1-5h1v-1s1 3 1 1l-1-2h1v-2l1-3v3c0 1 0 0 0 0v2c0 1 0-3-1-2a8 8 0 000 2 5 5 0 000 1h1l1 2v-1a3 3 0 010-2 5 5 0 011-1l1-1c1 0 0-1 0 0a7 7 0 01-1 3h-1a5 5 0 001 1h1a8 8 0 010 3 2 2 0 010 1h7l4-1h2v-1c4-7 9-7 9-7l2 1a6 6 0 011-2v2c0-1 0 0 0 0a3 3 0 010 1l1 1 1-1v1a19 19 0 010-2v2l1-2v1a4 4 0 010 1v-2-1-2 1h1a3 3 0 010 1v-1a4 4 0 010-1v-1-2l1 1a6 6 0 01-1 1v1a6 6 0 011 1l1-1h-1a9 9 0 011-1v-1a4 4 0 010 1v2a3 3 0 011 2 6 6 0 010 1l1-1v1l1 2v-1c0-1 0 0 0 0h2v3h1v-1a15 15 0 010 2l1 1v-1 1c0 3-1-1-2 0 0 1 0 0 0 0v0l-1-1h-1v-1 6a2 2 0 010 1v1h1s0-1 0 0v-1a3 3 0 011 1v-1c0-1 0 0 0 0a3 3 0 011 0v-1 0a1 1 0 010-1h1a1 1 0 010 1v-1 1h-1 1a3 3 0 010 2v-1l1-1v1-1h1a4 4 0 010-1v1a16 16 0 001-1c0-1 0 0 0 0l2-5v-1-1c0-1 0 0 0 0h1v1c1 0 0 0 0 0a2 2 0 010 1s0 1 0 0a2 2 0 000 1c1 1 0 2 2 1s3-5 4-5h3l4-3a5 5 0 003-2c1-1 1-3 3-3h4l5 1c0-1 0 0 0 0 1 0 1-1 3 3v1a2 2 0 000-1 16 16 0 010-3v2c0-1 0 0 0 0h1a5 5 0 010 1 6 6 0 010-2v1a4 4 0 010-1v-1l1-1c1 0 0 0 0 0a6 6 0 01-1 2 1 1 0 011 0 25 25 0 010 5 2 2 0 002 1v-1-1h1v2h1v-1s0 1 0 0v1h2a5 5 0 010 1 18 18 0 002 0 9 9 0 010-2s0 1 0 0v-1-2h1l1 3 1 1a2 2 0 010 1h1a5 5 0 010-2v2h1v-1 0c0-1 0 0 0 0v1a3 3 0 011-2s0 1 0 0v-1a2 2 0 010-1v-1 4c1 1 1-2 1-3s0-2 0 0v2a5 5 0 011 0 4 4 0 010 1 1 1 0 010-1v1l1-1v-1 1l1-1c0-2-1 1-1-1l1-1v0l1 2v-1 1a4 4 0 000-1v-1a1 1 0 010-1v2a11 11 0 010 1v-1l1 1v-1 1-1 1a1 1 0 010-1l1-1v-1s0-1 0 0a4 4 0 000 1c0 1 0 0 0 0l1-3v3a1 1 0 000-1v-2 1l1 1v-5 3l1-1v-1 1l1-2v0l-1 3h1s0 1 0 0v-4 2s0-2 1-1-1 1-1 1l1-2v1a4 4 0 010 1 1 1 0 000 1v-1-2-1-2 1h1a5 5 0 010 1 6 6 0 010-2v-1l1-2v1a6 6 0 01-1 2 25 25 0 011 4v2a2 2 0 010 1h1v0a4 4 0 010 1 7 7 0 010 1 17 17 0 011-2l-1-1a1 1 0 011-1v-1h1v2l1-1v1h2v1l1 2v1a13 13 0 001-2l2-3 2-4 4-4a4 4 0 013 2l3 2c1 0 0-3 2-4s1-3 3-4l3-3a3 3 0 010-1c1-1 1 1 1 1v-1l1 1v-2s0 1 0 0c0 0 0-1 0 0 0 0 0 2 1 1v-1l1-2-1 3h1v1l1-3-1 3 1-1 1 1-1 1h1a6 6 0 001-2l1-2 1 1-1 1h1a5 5 0 012-2l2-1v-1l1 1v-1a11 11 0 01-1-2 15 15 0 010-2 8 8 0 010-2l1-1 1 2v-1l2 1h-1v1a8 8 0 011 2l1-1v-2a3 3 0 010 2 11 11 0 001-3c1-2 3-5 4-3l3 7s3 10 4 9l3 5v-1a8 8 0 010 2l1-1a6 6 0 010 2l1 2-1-3 1-1v-1l1 2-1-2 1-1v-2l1-3v2l1 1-1 1 1 1a1 1 0 01-1 1s0-4-1-3a7 7 0 000 2 4 4 0 000 1h1l1 2v-1a4 4 0 010-1 5 5 0 011-2h1v-1a6 6 0 01-1 3s0-1 0 0a5 5 0 000 2l1-1a8 8 0 011 3 4 4 0 01-1 2l-1 2 1 2c0 1 0 4 1 3v-1 1l1-2v2a3 3 0 010-1 3 3 0 010-1h1v-1-1l1 2s0-1 0 0l1-1v1l1 1a9 9 0 010 1v1h-1a6 6 0 010 1 5 5 0 010 1v-1a1 1 0 010-1v-1l-1 2v-2 4l1 1a2 2 0 010-1l1-2s0-1 0 0h1a14 14 0 010-3v3a15 15 0 010-1c0-1 0 0 0 0h1a3 3 0 010 1 9 9 0 010-1c0-2 0-4 1-3a10 10 0 01-1 2l1-1v-1 1a6 6 0 010 1 3 3 0 010 1 3 3 0 000-3v-2a14 14 0 011 3v1h1a2 2 0 010-1s-1 1 0 0c0-1 0 0 0 0v-1a6 6 0 010 1 1 1 0 010 1 4 4 0 010 1v-4 7h1a5 5 0 010-1v-1a5 5 0 010 1h1v-1h-1a7 7 0 011-2v-1l1 1v-1l-1 3v1h1v-1 2a3 3 0 012 2 7 7 0 013-1c4-1 3 1 4 3a4 4 0 001 1 14 14 0 011 1h1l-1-2 1-1v-2l1 1v-2l1 2-1 3 1-2a5 5 0 010 2c0 1 0-1 0 0a3 3 0 000 2c0 1 1-1 1 1a1 1 0 010 1l-1-1 1 4a9 9 0 010 2l-1 1v-1l-1-2v-3 2h-1l1 1v2l1 2c0 2 0 2 1 1l1-1v-3l-1 2v-2a3 3 0 011-2l1 1v-1l1 1h1c0 3-2 0-2 2a6 6 0 000 1 9 9 0 002-2 10 10 0 010-3 7 7 0 010 3l1-1a4 4 0 000-1l-1 1v-3l-1-1v-2c0-1 0-2-1-1v4c0 2-1 1-1 0l-1-1c0-5 2-5 3-5l1 1-1 1h1l1-1 2-1v-1-1l1 1v-2 3h1l1-4a2 2 0 010-1v-2a4 4 0 010 1l2-5a22 22 0 003-3l4 2c1 0 1-2 2 1s0 8 1 9 2 2 4 1l2-3 3-4c1 0 3 1 4 4l1-1a3 3 0 010 1 3 3 0 000 1v1a7 7 0 010-1l1 1h-1v1a7 7 0 001 0v1a11 11 0 010-1v0l1-1v-2 1a5 5 0 010 1 6 6 0 010-2 4 4 0 011 0v-1-2 1a6 6 0 010 2 25 25 0 010 4v2h2v-1l1-1 1 2a7 7 0 010-1h1v1a2 2 0 001-1l5-6 4 7 5 6 4 2h1v-1 2h1v-1a2 2 0 010 1h1v-2 1a9 9 0 000-1 3 3 0 010-2v-2h1v-1 1s1-3 1-1 0 0-1 1c0 2 1 1 1 1a7 7 0 010 1v1a2 2 0 010 1l1-2v-1-1l1 2s0-1 0 0v-1-1c0-1 0 0 0 0v-1l1 1v-2 2h1v-1a2 2 0 010 1 7 7 0 010-1v1s0-1 0 0h1v-1-1l1-1-1 1v1l1-1v-2c0-1 0 0 0 0v0l1 1v1l1-5v1c0 1 0 0 0 0v2l1-1v-1-2 4l1-4v0l1-1v-2 1a5 5 0 010 1 6 6 0 010-2 4 4 0 011-1v-2 1a7 7 0 010 1 25 25 0 010 5v2a3 3 0 011 1 11 11 0 012-2l1-2v1l1-1h1c0-1 0 0 0 0h1l1-1 1 1 1-6v3l1-1v-1s0 1 0 0v-1l1-1v2l1-1c0-1 0-3 1-2s-1 2-1 3c1 0 1-3 2-2s-1 3-1 3l1-1v1a6 6 0 001-1l1-2 1 1v1h1v-1l1-1v4c1 1 0 0 0 0v2h1a2 2 0 011-1v-1 1a6 6 0 012 0 11 11 0 004 0 6 6 0 012 0 6 6 0 010-2l1-2a4 4 0 000-1l-1-2a6 6 0 011-2v3c0 1 0-1 0 0l1-2v1l1-1 1 2c0 1 0 0 0 0v2h1v-1 1h1v1l1-2a12 12 0 00-1 2l1 1v1l1-1s1-1 3 6l1 1-1-1 1 4v-2c0-1 0-3 1-2s-1 3 0 2v-1a7 7 0 010 3l-1 1 1 1a1 1 0 010 1v-2h1v-4h1v-1s0 3 1 1l-1-2h1v-2l1-3v3c0 1 0 0 0 0v2l-1-2a7 7 0 000 2 4 4 0 000 1h1l1 2v-1a3 3 0 010-1 5 5 0 011-2c0-1 0-1 0 0l1-1a7 7 0 01-1 3h-1a5 5 0 000 1h2a8 8 0 010 3 2 2 0 010 1h7l4-1h2V0L0-2v70c4-7 9-7 9-7zm12 10v-1 1zm0 2v-1 1zm0-3v0zm0 5zm0-4l1-1-1 1zm1 0s0 1 0 0a2 2 0 010 1v-1zm1 2h-1v-1h1c0-1 0 0 0 0a1 1 0 010 1zm0 0v0c0-1 0-1 0 0zm167 7v-1 1zm0-1v-1s1 1 0 0zm164-7zm0 2h0zm1-2v0zm0 5v-1 1zm0-4v-1 1zm0 0v-1 1h0zm1 1v-1 1zm1 0v0l-1 1v-1h1c0 1 0 0 0 0zm167 7v-1 1zm0-1zm163-8zm1 2zm0-2v0zm0 5v-1 1zm0-4v-1 1zm1 0h-1l1-1v1zm0 1v-1 1zm1 0v1h-1 1v-1c0 1 0 0 0 0zm167 7v-1 1zm0-1zm130-31h1l-1-1v1zm-1 1l1 1a3 3 0 010 2l-1-2 1-1zm-8-6l1-1-1 1zm-5 5l1 2-1-2zm-1 6h1v2a3 3 0 010-2zm0-3v-1 1zm-1-1a1 1 0 01-1 1l1-1zm-2-2l1 2v-2zm-3 13a2 2 0 010-1h-1l1-2 1-1a3 3 0 010 1l-1 1v2zm2-3l-1 1v1l-1-1a3 3 0 011-1h1zm-3-5h1v-1a3 3 0 011 1v1l-1-1v2c0 1 0 0 0 0l-1-2zm0 5l1-1v1a3 3 0 01-1 1h-1l1-1zm0-8a3 3 0 010 1v-1zm-1 2zm-3-10l2-1v-1 4l-1-2h-1zm1 4a7 7 0 010-2h1l-1 1 1 1v1s0-1 0 0l-1-1v1l-1 1 1-2zm-2-5h0zm0 3h1v-1a2 2 0 010 1v1l-1 1a3 3 0 010-2zm0 12v-1-2a15 15 0 010-2 8 8 0 010-2l1-1 1 2v-1s1-1 1 1l-1-1v2l1-1v3l1 1h-1s0-1 0 0v1l-1 1 1 1-1 1s1 0 0 0v1l-1 1v2l-1-1 1-1a3 3 0 000-1l-1-1c0-1 0 0 0 0h1v-2 1l-2-1h1zm-5-9l1-1-1 1zm-14 17v-1a1 1 0 010 1zm0-8a9 9 0 010-1h1l-1 1zm0 3v0zm0 2a16 16 0 010-3v3a4 4 0 010 2v-1zm-2-2a3 3 0 011 0v-1a6 6 0 010 1c0 1 0 1 0 0h-1zm0 3a9 9 0 011-1s0-1 0 0l-1 1zm0-2v-1a4 4 0 010 1s0-1 0 0v1a5 5 0 010 1v-1c0-1 0 1 0 0a9 9 0 010-1zm-2-3a9 9 0 010-1v1zm-1 4h1-1zm0 2a16 16 0 010-4v3a4 4 0 010 2v-1zm-1-3v-1a6 6 0 010 2v-1s0 1 0 0zm0 3a9 9 0 010-1v1zm-1-2v-1a3 3 0 010 1v1a5 5 0 010 1v-1c0-1 0 1 0 0a9 9 0 010-1zm-2 7h1l-1-2 1 1-1 1zm1-7v-2 2zm-1 4a8 8 0 010-3l1 1v-1 2a2 2 0 010-1v2l-1-1v1a9 9 0 010-1c1-1 0 0 0 0v1zm0 1v-2a6 6 0 010 2zm-4-2v2a6 6 0 010-2zm-2 8v-1 2s0 1 0 0v-1zm-27-6c0 1 0 1 0 0zm1-7v-1a9 9 0 010-1v2zm-1 3h1c0 1 0 0 0 0h-1zm0 2a16 16 0 010-3v3a4 4 0 010 1v-1zm-1-2a3 3 0 010-1v-1a6 6 0 010 2zm0 2a9 9 0 010-1c0 1 0 0 0 0v1zm-1-2v-1a3 3 0 010 1v1a5 5 0 010 1v-1s0 1 0 0a9 9 0 010-1zm-1-11a4 4 0 010 1v-2zm-1 9v-1a9 9 0 010-1v2zm0 3v0zm-1 2a16 16 0 011-3v3a4 4 0 01-1 1v-1zm-1-2a3 3 0 010-1l1-1a6 6 0 010 2h-1zm-11-2v-1c0 2-1 2-1 1zm-7-16v0zm0 8v0zm-10 3c1-1 1 2 1 3l-1-3zm-5 9l1 1-1-1zm1-2c0 1-1 0 0 0l-1-1c0-2 1 0 1 1zm-2-1v3s0-3 1-2a8 8 0 010 3l-1-1c-1 0 0 0 0 0v-3zm-2 0c1-1 1-1 1 1 0 0 0-1 0 0l-1 1a12 12 0 010-2zm-1 2c0-2 1-3 1-1v1l-1 2a6 6 0 010-2zm-9-3a4 4 0 011 3l-1 1v-4zm-1-5v1l-1 1 1-2zm-1 5h1l-1 1 1 1-1-2zm-5-5a10 10 0 010-1h1l-1 1zm0 3v0zm0 2a16 16 0 010-3v3a4 4 0 010 1s0 1 0 0v-1zm-2-5h0zm-2 1a9 9 0 010-1c0-1 0 0 0 0v1zm-1 3l1 1-1-1zm0-6a9 9 0 010 3c0 1 0 0 0 0v-3zm-1 7l-1 2 1-2zm0-1v-1a6 6 0 010 1c0 1 0 1 0 0zm-5-31v1l-1-2zm-1 2v1a3 3 0 010 1v-2zm-8-7s0-1 0 0zm-6 6l1 2-1-2zm-1 2l1-1-1 1zm-8-4h-1v-1h-1v1a7 7 0 010-3h1l-1 1 1 1v1h1zm-1-5l1-2-1 2v0l-1 1 1-1zm-2-4h0zm0 3v0zm-1 4l1-1v-1a2 2 0 010 1v3a3 3 0 01-1-2zm-5 2l1-1-1 1zm-30 31s0-1 0 0zm-5-5c0 1 0 1 0 0zm1-7v-1a9 9 0 010-1v2zm-1 3h1c0 1 0 0 0 0h-1zm0 2a16 16 0 010-3v3a4 4 0 010 1v-1zm-1-2a3 3 0 010-1v-1a6 6 0 010 2zm0 2a9 9 0 010-1c0 1 0 0 0 0v1zm-1-2v-1a3 3 0 010 1v1a5 5 0 010 1v-1 1a9 9 0 010-2zm-2-2v-1a9 9 0 010-1v2zm0 3v0zm-1 2a16 16 0 011-3v3a4 4 0 01-1 1v-1zm-1-2a3 3 0 010-1l1-1a6 6 0 010 2h-1zm0 3a7 7 0 010-2l1 1h-1v1zm0-3v-1a3 3 0 010 1v1a5 5 0 010 2v-2l-1 1a9 9 0 011-2zm-2 7s0 1 0 0v-1 2zm0-7v-2l1 1-1 2v-1zm-1 4a8 8 0 011-3v2c0-1 0 0 0 0v1a8 8 0 010-1c0-1 0 0 0 0l-1 1zm0 1v-1a6 6 0 010 1zm-3-1c0-1 0 0 0 0l-1 1a6 6 0 010-1zm-2 1h0zm-1 7l1-1c1 0 0-1 0 0l-1 1s0 1 0 0v-1zm-2-9a9 9 0 010 3c0 1 0 0 0 0v-3zm-1 7v0zm-1 0v0zm-1 1v1a7 7 0 010-2v1zm0-4v2-2zm-1 0s0 1 0 0v1a1 1 0 010-1zm-1 1v1s0 1 0 0a2 2 0 010-1zm-6 4v-1a1 1 0 010 1zm0-8v-1a9 9 0 010-1v2zm0 3v0zm0 2a16 16 0 010-3v3a4 4 0 010 1s0 1 0 0v-1zm-2-2a3 3 0 011-1v0a6 6 0 010 1c0 1 0 0 0 0h-1zm0 3a9 9 0 011-1c0-1 0-1 0 0l-1 1zm0-3s0-1 0 0v2a5 5 0 010 1v-1c0-1 0 1 0 0a9 9 0 010-2zm-2-2a9 9 0 010-1c0-1 0 0 0 0v1zm-1 3l1 1-1-1zm-1 0c0-1 0 0 0 0v-1a6 6 0 010 1c0 1 0 0 0 0zm-32 12s0-1 0 0zm-1 1v0zm-1-2c0-1 0 0 0 0zm0 2a1 1 0 010-1v1zm0-2v-1zm-1 4v-1a3 3 0 010 1zm0-1c0-1 0-1 0 0zm0-5a2 2 0 010 1v-1zm-1 3a2 2 0 011-1v1zm0 1v0zm0-5v0zm0 2v0zm0 4zm0-1h-1a2 2 0 011 1h-1a1 1 0 010-1s0 1 0 0a2 2 0 010-1v1a2 2 0 011 1v-1zm0 2a4 4 0 010-2 5 5 0 010 2zm0-6v-1zm-5-5c0 1 0 1 0 0v-1 1zm0-7v-1a8 8 0 011-1l-1 2zm0 3c0-1 0 0 0 0 0 1 0 0 0 0zm0 2a17 17 0 010-3v3a4 4 0 010 1v-1zm-1-2a3 3 0 010-1v-1a6 6 0 010 2zm0 2a9 9 0 010-1c0 1 0 0 0 0v1zm-3-4v-1a10 10 0 010-1v2zm0 3c0-1 0 0 0 0 0 1 0 0 0 0zm-1 2a16 16 0 010-3v3a4 4 0 010 1v-1zm-1-2a3 3 0 010-1v-1a6 6 0 010 2zm0 2a9 9 0 010-1c0 1 0 0 0 0v2zm-1-2l1-1a4 4 0 010 1h-1v1a5 5 0 010 1v-1 1a9 9 0 010-2zm-1 0v-2 2zM11 60v-1l1-1v1l-1 1zm2 0v-1 2a5 5 0 010 1v-1c0-1-1 1 0 0a9 9 0 010-2s0-1 0 0zm1 1l-1 1a9 9 0 010-1h1zm0-2c0 1 0 1 0 0h-1 1v-1a6 6 0 010 1zm1 2a4 4 0 010 1h-1l1-1a16 16 0 010-3v3zm0-1v-1 1zm0-5v1a7 7 0 010-1c0-1 0 0 0 0zm3 5v1a7 7 0 010-1c0-1 0-1 0 0zm0-2c0 1 0 0 0 0a3 3 0 010-1v0a6 6 0 010 1zm1 5v-1 1zm0-3a4 4 0 010 1v-1a16 16 0 010-3v3zm1-1v-1 1zm0-5v0a7 7 0 010-1v1zm6 18c0 1 0 0 0 0zm-1-4v-1 1zm-1-1zm0 5s0-1 0 0a3 3 0 000-1v1a2 2 0 010-1 2 2 0 010 1zm0 1a5 5 0 010-1 4 4 0 010 1zm1 0a1 1 0 01-1-1l1 1c0 1 0 0 0 0zm0-4h-1zm0 2v0zm0-1s0 1 0 0c0 0 0-1 0 0zm0-2h0zm1 5h0v-1a2 2 0 010 1zm0-3v-1 1zm0 1c0-1 0 0 0 0zm1-2zm0 3v-1 1zm1-2zm33-11h-1v-1l1-1a6 6 0 010 2zm1 0c0-1 0 0 0 0zm0-5v1a9 9 0 010-1zm2 4v1a5 5 0 010 1v-1c0-1 0 1 0 0a9 9 0 010-1l1-1a4 4 0 01-1 1zm1 1c0 1 0 0 0 0v1a9 9 0 010-1zm0-1v-1c0-1 0 1 0 0v-1a6 6 0 010 2zm1 4v-1 1zm0-3a4 4 0 010 2v-1a16 16 0 010-4v3zm1-1h-1 1zm0-5v1a9 9 0 010-1zm6 6l-1 1a2 2 0 011-2v1zm1-1h-1a1 1 0 011-1v1zm0 0v0zm0 4v1a7 7 0 010-2v1zm2-1l-1-1 1 1zm1-1l-1 2 1-2zm0-3v-1-2a10 10 0 010 3zm3 6h-1l1-1v-1s0-1 0 0v2zm1-8v0zm1 0a6 6 0 010-1v1c0 1 0 1 0 0zm4 0h-1l1-1a6 6 0 010 1zm0 3v-1-1l1 1-1 1zm0-4v1a9 9 0 010-2c0-1 0 0 0 0v1a8 8 0 010-3v1h1l-1 1h1l-1 1zm1-3v-1-1 2zm1 0v-1 2a5 5 0 010 1v-1c0-1 0 1 0 0a9 9 0 010-2s0-1 0 0a3 3 0 010 1zm1 1v1a9 9 0 010-1s0-1 0 0zm0-2c0 1 0 1 0 0v-1a6 6 0 010 1zm1 2a4 4 0 010 1c0 1 0 1 0 0v-1a16 16 0 010-3v3zm0-1v-1 1zm1-5l-1 1a9 9 0 011-1c0-1 0 0 0 0zm2 3c0 1 0 0 0 0v2a5 5 0 01-1 1l1-1h-1a9 9 0 011-2s0-1 0 0zm1 2h-1v1a9 9 0 010-1h1zm0-2h-1c0-1 0 0 0 0l1-1a6 6 0 010 1zm1 5l-1-1a1 1 0 011 1zm-1-3h1a4 4 0 01-1 1s0 1 0 0v-1a16 16 0 011-3v3zm1-1v-1 1zm0-5v0a10 10 0 010-1v1zm4 13h1zm39-33l-1-2h-1l1-1 1-2v5zm-2-3l-1-1 1 1zm-6 5v-1 1zm6-2l-1 1v1a3 3 0 010-2v-1-1a2 2 0 011 2zm0-7l1 1-1-1zm1 10v-1h-1v1c-1 0 0 0 0 0v-1a7 7 0 011-2c0-1 0-1 0 0v2h1v1h-1zm10 4v-1 1zm1-3v0zm5-5l1-1-1 1zm9 9l-1-2v-1l1 1a3 3 0 010 2zm0-5l1 1-1-1zm6 32l-1 2v-2zm0 0h-1c0-1 0 0 0 0a3 3 0 010-1h1v-1a6 6 0 010 2zm0-3v-1-2a9 9 0 010 3zm1 3c0-1 0 0 0 0 0 1 0 0 0 0zm0-3v-1a10 10 0 010-1v2zm10 0v-1 1zm-8-2l1 1-1-1zm2 6a4 4 0 010 1v-1a16 16 0 010-3v3zm1-2h-1 1c0 1 0 0 0 0zm0-5v1a9 9 0 010-1zm5 6v0zm1 4s0 1 0 0l1-3a4 4 0 010 2l-1 1zm10 0v1a6 6 0 010-2l1-1-1 2zm1-2v2a12 12 0 010-3l1 1h-1zm2 3v-1h-1v-3 3l1-2a8 8 0 010 3zm1-1v0zm0-2v-1l1 2-1-1zm5-4v-2 3zm9-6v0zm0-5v-2h1l-1 2zm7 14l1-2-1 2zm12 1c0 1 0 1 0 0 0 0 0 1 0 0v-1a6 6 0 010 1zm1 2a4 4 0 010 1v-1a16 16 0 010-3v3zm0-1v-1 1zm1-5l-1 1a10 10 0 011-1c0-1 0 0 0 0zm1-7c-1 1-1-1-1-2l1 1a3 3 0 010 1zm1 10c0 1 0 0 0 0v2a5 5 0 01-1 1l1-1h-1a9 9 0 011-2s0-1 0 0zm1 2h-1v1a9 9 0 010-1h1zm0-2h-1c0-1 0 0 0 0l1-1a6 6 0 010 1zm1 5l-1-1a1 1 0 011 1zm-1-3h1a4 4 0 01-1 1s0 1 0 0v-1a17 17 0 011-3v3zm1-1v-1 1zm0-4a9 9 0 010-2v2zm26 14v0l1-1s0-1 0 0c0 2 0 1-1 1zm2-7a6 6 0 011-1l-1 1zm4 0s0 1 0 0v-1a6 6 0 010 1zm1 3v-1s0 1 0 0v-1 2zm0-4a9 9 0 010-1c0-1 0 0 0 0l-1 1a8 8 0 011-3v3zm0-3v-1-2l1 1-1 2zm2-1v2a5 5 0 010 1v-1h-1a9 9 0 011-2v-1a4 4 0 010 1zm1 2s0-1 0 0l-1 1a9 9 0 010-1h1zm0-2h-1a3 3 0 010-1h1a6 6 0 010 1zm1 2a4 4 0 01-1 1v-1a17 17 0 011-3v3zm0-1v-1 1zm0-5v0a9 9 0 010-1v1zm2 3v1a5 5 0 010 2v-2 1a9 9 0 010-2l1-1a4 4 0 01-1 1zm1 2s0-1 0 0v1a9 9 0 010-2v1zm0-2c0 1 0 0 0 0a3 3 0 010-1v-1a6 6 0 010 2zm1 5v-1a1 1 0 010 1zm0-4v1a4 4 0 010 1v-1a16 16 0 010-3v2zm1 0l-1-1c1-1 1 0 1 1zm0-6v1a7 7 0 010-1zm20-17h-1zm3 14v-2a3 3 0 010 2zm0 1h-1 1zm-3-6v0a7 7 0 010-3l1 1h-1l1 1 1 1h-1v-1h-1v1zm1-3v-2l-1 1 1-1 1-2-1 2v2zm-2 0v-1a2 2 0 010 1v3a3 3 0 01-1-2l1-1zm0-3v0zm-6 6l1-1-1 1zm9 8l-1 2v2l-1 1-1 1v1c-1 0 0 0 0 0v-1a3 3 0 000-1v-1-1h1c1-1 0-2-1-2v1s-1 1-1-1v-1l1 1-1-3a15 15 0 010-2 8 8 0 010-2l1-1 1 2v-1l2 1h-1v2l1 2 1 1-1-1h-1l1 1zm1 5l1-2v-1 1a3 3 0 010 1l-1 1zm2 2a2 2 0 01-1-1v-1l1-1v-2a3 3 0 010 1v2 2zm1-4a1 1 0 010 1h-1v0a3 3 0 010-1h1zm-1-3v-1s0 1 0 0v1h-1v-2c1-1 0 1 0 0l1-1a3 3 0 010 1l1 1-1 1zm3-6v1-1zm1 3l-1-1h1a1 1 0 010 1zm1-1l1-1-1 1zm1 5a3 3 0 010-1v-1h1v1l-1 1zm0-7l1 2-1-2zm14 3v-2 1a3 3 0 010 1zm0-5l1 1v1l-1-2zm-8-4s0 1 0 0zm33 20v-1-2 3zm1-1v1a5 5 0 010 1v-1 1a9 9 0 010-2v-1a4 4 0 010 1zm1 2v-1 1a7 7 0 010-1v1zm0-2a3 3 0 010-1v-1a6 6 0 010 2zm1 1v1a4 4 0 010 1v-1a16 16 0 010-3v2zm1-1h-1 1c0 1 0 0 0 0zm0-5v1a8 8 0 010-1zm3 5c0 1 0 0 0 0l-1 1a7 7 0 010-1h1zm0-1h-1a3 3 0 010-1h1v-1a6 6 0 010 2zm1 4c0 1 0 0 0 0v-1 1zm0-3v1a4 4 0 010 1h-1l1-1a17 17 0 010-3v2zm0-1c0-1 0 0 0 0 0 1 0 0 0 0zm0-5v1a6 6 0 010-1zm6 19a1 1 0 010-1v1zm-1-5v-1 1zm0 0v-1 1zm0 4h-1a2 2 0 010 1 1 1 0 010-1s0 1 0 0a2 2 0 010-1v0a2 2 0 011 2v-1zm0 1a5 5 0 010-1 4 4 0 010 2zm0 0zm0-3v-1 1zm0 2v0zm1-2l-1 1a2 2 0 010-1h1zm0-2a3 3 0 010 1v-1zm0 6v-1a2 2 0 010 1zm0-4l1-1-1 1zm1 2a1 1 0 010-1v1zm0-2zm1 3a2 2 0 010-1l-1-1 1 2zm1-2v-1 1zm32-12c0 1 0 0 0 0a3 3 0 010-1v0a6 6 0 010 1zm1 1v-1 1zm1-5l-1 1 1-1a9 9 0 010-1v1zm2 3c0 1 0 0 0 0v2a5 5 0 010 1v-1h-1a9 9 0 011-2v-1a4 4 0 010 1zm1 2l-1 1a9 9 0 010-1h1zm0-2h-1a3 3 0 010-1h1c1 0 0-1 0 0a6 6 0 010 1zm1 5v-1 1zm0-3a4 4 0 01-1 1v-1a16 16 0 011-3v3zm0-1v-1 1zm0-5v0a7 7 0 010-1v1zm6 6c0-1 0 1 0 0a2 2 0 010-1v1zm1-2v1a1 1 0 010-1v1zm0 0l1 2-1-2zm1 4v1a7 7 0 010-2v1zm1 0v-1 1zm1-1s0 2-1 1 1-2 1-1zm1-4c0 1 0 0 0 0v-3a9 9 0 010 3zm2 6s0 1 0 0v-1-1l1 1-1 1zm1-7h0zm1 0a6 6 0 010-1v1zm4 0v-1a6 6 0 010 1zm1 3v-1s0 1 0 0v-1 2zm0-4a9 9 0 010-1h-1v1a8 8 0 011-3v2c0-1 0 0 0 0v1zm0-3v-1-2 3zm2-1h-1v1a5 5 0 010 2v-2 1a9 9 0 010-2l1-1a4 4 0 010 1zm0 2s0-1 0 0v1a9 9 0 010-1c0-1 0-1 0 0zm0-2c0 1 0 0 0 0a3 3 0 010-1 6 6 0 010 1zm1 1v1a4 4 0 010 1v-1a16 16 0 011-3l-1 2zm1 0v-1 1zm0-6v1a9 9 0 010-1zm2 4v1a5 5 0 010 1v-1 1a9 9 0 010-2v-1a4 4 0 010 1zm1 1c0 1 0 0 0 0v1a9 9 0 010-1zm0-1a3 3 0 010-1v-1a6 6 0 010 2zm1 4c0 1 0 1 0 0zm0-3v1a4 4 0 010 1v-1a16 16 0 010-3v2zm0-1h0zm1-5l-1 2 1-1a8 8 0 010-1zm4 14s0-1 0 0zm30-31l1-1-1 1zm8-2v-2h-1l1-1 1-2-1 2v2zm-2-3v-1 1zm0 2v3a3 3 0 01-1-2l1-1v-1a2 2 0 010 1zm0-6h0zm2 9l-1-1c-1 0 0 0 0 0v1a7 7 0 010-3l1 1h-1l1 1v1h0zm9 4l1-1-1 1zm1-2l1 2-1-2zm6-6s0-1 0 0zm8 9v-2 1a3 3 0 010 1zm0-5l1 1v1l-1-2zm6 33l-1 1 1-1zm0-1c0 1 0 1 0 0v-1a6 6 0 010 1zm1-3h-1l1-3a9 9 0 010 3zm0 4v-1l1 1h-1zm0-4h1a9 9 0 010-1c0-1 0 0 0 0l-1 1zm10 1v-2 2zm-7-2h0zm2 5a4 4 0 01-1 1s0 1 0 0v-1a16 16 0 011-3v3zm0-1v-1 1zm0-5v1a10 10 0 010-1c0-1 0 0 0 0zm5 6h1l-1 1 1 1-1-2zm2 4v-4a4 4 0 010 3v1zm9-1v2a6 6 0 010-2c0-2 1-3 1-1l-1 1zm2-1l-1 1a12 12 0 010-2c0-1 1-1 1 1 0 0 0-1 0 0zm2 3l-1-1v-3 3s0-3 1-2a8 8 0 010 3zm0-1l1 1-1-1zm1-2l-1-1c0-2 1 0 1 1h-1zm5-4l-1-3 1 3zm8-6c1-1 1 0 1 1l-1-1zm1-6v-2 2zm6 14c1 0 1-3 1-1l-1 1zm12 2c0 1 0 0 0 0a3 3 0 010-1v-1a6 6 0 010 2zm1 1v1a4 4 0 010 1v-1a16 16 0 011-3l-1 2zm1 0v-1 1zm0-6v1a9 9 0 010-1zm1-6v-2-1a2 2 0 000 1 3 3 0 010 2zm1 10v1a5 5 0 010 1v-1 1a9 9 0 010-2v-1a4 4 0 010 1zm1 1c0 1 0 0 0 0v1a9 9 0 010-1zm0-1a3 3 0 010-1v-1a6 6 0 010 2zm1 4c0 1 0 1 0 0zm0-3v1a4 4 0 010 1v-1a16 16 0 010-3v2zm0-1c0-1 0 0 0 0 0 1 0 0 0 0zm0-3l1-1a9 9 0 010-1l-1 2zm27 14s0 1 0 0v-1-1 2zm2-7a7 7 0 010-2v2zm4 0h-1l1-2a6 6 0 010 2zm0 2c0-1 0 0 0 0v-2l1 1-1 1zm0-3v-1 1a9 9 0 010-2v1s0 1 0 0a8 8 0 010-2v1l1-1-1 2a2 2 0 010-1l1 1-1 1zm1-4v-2 2zm1 0v1a5 5 0 010 1v-1c0-1 0 1 0 0a9 9 0 010-1v-1a4 4 0 010 1zm1 1v1a9 9 0 010-1zm0-1v-1s0 1 0 0v-1a6 6 0 010 2zm1 1a4 4 0 010 2v-1a16 16 0 010-4v3zm0-1c0-1 0 0 0 0 1 0 0 0 0 0zm1-5l-1 1h1a9 9 0 010-1zm2 4s0-1 0 0v1a5 5 0 010 1v-1h-1a9 9 0 011-1v-1a4 4 0 010 1zm1 1l-1 1a7 7 0 010-1h1zm0-2h-1c-1-1 0 1 0 0h1v-1a6 6 0 010 1zm1 5v-1a1 1 0 010 1zm0-3a4 4 0 01-1 2v-1a16 16 0 011-4v3zm0-1v-1 1zm0-5v1a7 7 0 010-1zm14-8v-1 1zm9 4v-1a3 3 0 010 1zm0 1c0 1-1 0 0 0zm-2-5h-1v-1a7 7 0 011-2s0-1 0 0v2h1v1h-1v-1h-1l1 1zm-2-3c1-1 0-2 1-1a2 2 0 010 1l-1 1v1a3 3 0 010-2zm0-3h0zm1-4l1 1-1-1zm2 7l-1-2h-1l2-1v-1 4zm0 11l-1 1v1 1c0 1 1 0 0 0v1l-1 1v2l-1-1 1-1a3 3 0 000-1l-1-1c0-1 0 0 0 0l1-1v-1l-1 1-1-1h1v-1-2a15 15 0 010-2 8 8 0 010-2l1-1 1 2v-1s1-1 1 1l-1-1v2l1-1v3l1 1h-1s0-1 0 0v1zm1 4l1-1 1-1v1a3 3 0 01-1 1h-1zm2 2a2 2 0 010-1h-1l1-2 1-1a3 3 0 010 1l-1 1v2zm1-3v2l-1-1a3 3 0 011-1c0-1 0-1 0 0zm0-4l-1-1v2l-1-2h1v-1a3 3 0 011 1v1c0 1 0 0 0 0zm2-6l1 2-1-2zm1 3h-1l1-1a1 1 0 010 1zm2 0v-1 1zm0 5a3 3 0 010-2h1l-1 2zm1-8v0zm5-5l1-1-1 1zm9 9l-1-2v-1l1 1a3 3 0 010 2zm0-5v1h1l-1-1zm13-10l-1 1 1-1z"
      fill-rule="evenodd" />
    <path
      d="M301 59v2a2 2 0 000 1l1-1-1-2zM98 61s0 1 0 0l-1 1a4 4 0 011-1l-1-1-1-1v0h-1v3h1a6 6 0 01-1 1 2 2 0 001 0 4 4 0 001-1c0 1 0 1 0 0a3 3 0 001 0v-1zm-2 1v-1 1zm0-1l1 1-1-1zm1 1v-1 1zM171 61l-1 2c-1 0 0 0 0 0v3a3 3 0 010 1c0 1 0 0 0 0v1a1 1 0 011-1v-1l1 2a11 11 0 00-1-6v-1zM264 71zM198 70zM264 71zM23 74zM23 76v-1 1h1l-1-1a2 2 0 000 1zM22 76c0 1 0 0 0 0zM62 61v0c0-1 0 0 0 0zM72 66v-2 2zM19 67v1zM11 62v0c0-1 0 0 0 0zM15 62zM94 59v-1a2 2 0 00-1 1h1a3 3 0 000 1l1 3v-1-1l-1-2zM74 65a1 1 0 000 1h1v-1h-1zM91 52l-1 1v0a3 3 0 010 1 7 7 0 000 1l1-2v-1zM165 60zM88 58a2 2 0 000-1v1zM84 62v-1 1zM85 62a4 4 0 000-1 1 1 0 010 1zM407 67a1 1 0 000 1h1v-1h-1zM396 62l-1 1 1 1v-1-1zM499 62v-1a3 3 0 000 1zM421 59a2 2 0 000-1 2 2 0 010 1zM418 63zM405 67h1a8 8 0 000-1l-1 1zM352 69h1zM348 64v-1a1 1 0 000 1zM344 64c1-1 0 0 0 0zM357 76zM357 77a1 1 0 000 1 1 1 0 010-1zM355 77v1a1 1 0 010-1zM418 64v-1 1zM531 72v-1 1zM562 66v1a7 7 0 000 1v-1-1zM504 63v5a3 3 0 010 1v-1 1a1 1 0 010-1l1-1v2a11 11 0 00-1-5v-1zM604 64s-1 1 0 0l-1 1v-1a3 3 0 010 1 6 6 0 000 1l1-2v-1 1zM505 72h-1v1h1a2 2 0 000-1zM597 73zM598 73zM635 61l-1 2h1v-1-1zM424 54v1a7 7 0 000 1v-1-1zM501 63zM428 61v-1h-1a2 2 0 000 1 3 3 0 001 1v-1zM431 63v-1l-1-1h-1v-1 4c0-1 0-1 0 0a6 6 0 010 1 4 4 0 002-1h-1l1-1v0zm-2 0h0zm1 0v0zm0 1v-1 1zM431 63v1-1z"
      fill-rule="evenodd" />
    <path
      d="M432 62a1 1 0 00-1 0 2 2 0 000 1l1-1-1 1h1v-1zM740 67a1 1 0 000 1h1v-1h-1zM751 63zM738 67h1v-1l-1 1zM751 64v-1 1zM761 61v-1h-1a2 2 0 000 1 3 3 0 001 1v2l1-2-1-1zM757 54v1a7 7 0 000 1v-1-1zM755 59a2 2 0 000-1 2 2 0 01-1 1h1zM682 64v-1a1 1 0 000 1zM677 64h0zM686 69zM729 62v1h-1l1 1v-1-1zM690 76zM690 77a1 1 0 000 1 1 1 0 010-1zM688 77a8 8 0 000 1h1a1 1 0 01-1-1zM931 73zM895 66v1a7 7 0 000 1v-1-1zM832 62a1 1 0 000-1 1 1 0 000 1zM837 63v5a3 3 0 010 1v-1 1h1a1 1 0 010-1v-1 2a11 11 0 000-5l-1-1zM864 72l1-1-1 1zM937 64s0 1 0 0v0h-1a3 3 0 010 1 7 7 0 000 1c1 1 1-1 1-2v-1 1zM968 61v2a2 2 0 00-1 0h1v-1-1zM930 73h1-1zM838 72h-1a3 3 0 000 1 3 3 0 001 0 2 2 0 000-1z"
      fill-rule="evenodd" />
    <path
      d="M765 63h-1s0 1 0 0v-1l-1-1s0 1 0 0l-1-1c-1 0 0 0 0 0v4c0-1 0-1 0 0a6 6 0 010 1 2 2 0 001 0 4 4 0 001-1v-1 1l1-1zm-2 0zm0 0v0zm0 1v-1 1z"
      fill-rule="evenodd" />
    <path d="M764 63v1l1-1h-1zM765 62a1 1 0 00-1 0 2 2 0 001 1v-1 0zM834 63z" fill-rule="evenodd" />
  </g>
</svg>
